<svg width="223" height="64" viewBox="0 0 223 64" fill="none" xmlns="http://www.w3.org/2000/svg">
<path d="M2.14665 64H0V-1.52588e-05H2.14665V64Z" fill="#212121"/>
<path d="M60.85 64H58.7031V-1.52588e-05H60.85V64Z" fill="#212121"/>
<path d="M65.5042 64H63.3555V-1.52588e-05H65.5042V64Z" fill="#212121"/>
<path d="M106.307 64H104.158V-1.52588e-05H106.307V64Z" fill="#212121"/>
<path d="M165.73 64H163.58V-1.52588e-05H165.73V64Z" fill="#212121"/>
<path d="M196.509 64H194.361V-1.52588e-05H196.509V64Z" fill="#212121"/>
<path d="M178.255 64H176.107V-1.52588e-05H178.255V64Z" fill="#212121"/>
<path d="M101.296 64H99.1484V-1.52588e-05H101.296V64Z" fill="#212121"/>
<path d="M6.44455 64H4.29688V-1.52588e-05H6.44455V64Z" fill="#212121"/>
<path d="M14.6755 64H9.30469V-1.52588e-05H14.6755V64Z" fill="#212121"/>
<path d="M77.3161 64H71.9473V-1.52588e-05H77.3161V64Z" fill="#212121"/>
<path d="M129.218 64H123.85V-1.52588e-05H129.218V64Z" fill="#212121"/>
<path d="M209.393 64H204.023V-1.52588e-05H209.393V64Z" fill="#212121"/>
<path d="M32.7506 64H27.3828V-1.52588e-05H32.7506V64Z" fill="#212121"/>
<path d="M97.0026 64H91.6328V-1.52588e-05H97.0026V64Z" fill="#212121"/>
<path d="M139.239 64H133.867V-1.52588e-05H139.239V64Z" fill="#212121"/>
<path d="M160 64H154.633V-1.52588e-05H160V64Z" fill="#212121"/>
<path d="M223.001 64H217.631V-1.52588e-05H223.001V64Z" fill="#212121"/>
<path d="M173.605 64H168.232V-1.52588e-05H173.605V64Z" fill="#212121"/>
<path d="M47.4838 64H38.4238V-1.52588e-05H47.4838V64Z" fill="#212121"/>
<path d="M88.6447 64H79.584V-1.52588e-05H88.6447V64Z" fill="#212121"/>
<path d="M151.643 64H142.584V-1.52588e-05H151.643V64Z" fill="#212121"/>
<path d="M192.452 64H183.391V-1.52588e-05H192.452V64Z" fill="#212121"/>
<path d="M17.1836 64H18.257V-1.52588e-05H17.1836V64Z" fill="#212121"/>
<path d="M50.8242 64H51.8977V-1.52588e-05H50.8242V64Z" fill="#212121"/>
<path d="M54.4082 64H55.4817V-1.52588e-05H54.4082V64Z" fill="#212121"/>
<path d="M69.3242 64H70.3984V-1.52588e-05H69.3242V64Z" fill="#212121"/>
<path d="M109.172 64H110.246V-1.52588e-05H109.172V64Z" fill="#212121"/>
<path d="M113.824 64H114.897V-1.52588e-05H113.824V64Z" fill="#212121"/>
<path d="M119.912 64H120.987V-1.52588e-05H119.912V64Z" fill="#212121"/>
<path d="M198.299 64H199.374V-1.52588e-05H198.299V64Z" fill="#212121"/>
<path d="M211.904 64H212.979V-1.52588e-05H211.904V64Z" fill="#212121"/>
<path d="M179.863 64H180.936V-1.52588e-05H179.863V64Z" fill="#212121"/>
<path d="M23.9817 64H21.834V-1.52588e-05H23.9817V64Z" fill="#212121"/>
</svg>
