<svg width="20" height="20" viewBox="0 0 20 20" fill="none" xmlns="http://www.w3.org/2000/svg">
<path d="M11.4323 15.2083H12.2135C12.3171 15.2083 12.4165 15.1672 12.4898 15.0939C12.563 15.0207 12.6042 14.9213 12.6042 14.8177V7.78646C12.6042 7.68286 12.563 7.5835 12.4898 7.51024C12.4165 7.43699 12.3171 7.39583 12.2135 7.39583H11.4323C11.3287 7.39583 11.2293 7.43699 11.1561 7.51024C11.0828 7.5835 11.0417 7.68286 11.0417 7.78646V14.8177C11.0417 14.9213 11.0828 15.0207 11.1561 15.0939C11.2293 15.1672 11.3287 15.2083 11.4323 15.2083ZM16.7708 4.27083H14.0882L12.9814 2.42513C12.8426 2.19369 12.6461 2.00218 12.4111 1.86925C12.1762 1.73633 11.9109 1.66654 11.641 1.66666H8.35905C8.08924 1.66665 7.82403 1.7365 7.58923 1.86941C7.35443 2.00233 7.15805 2.19378 7.01921 2.42513L5.91179 4.27083H3.22917C3.09104 4.27083 2.95856 4.3257 2.86088 4.42338C2.76321 4.52105 2.70834 4.65353 2.70834 4.79166V5.3125C2.70834 5.45063 2.76321 5.58311 2.86088 5.68078C2.95856 5.77846 3.09104 5.83333 3.22917 5.83333H3.75V16.7708C3.75 17.1852 3.91462 17.5827 4.20765 17.8757C4.50067 18.1687 4.8981 18.3333 5.3125 18.3333H14.6875C15.1019 18.3333 15.4993 18.1687 15.7924 17.8757C16.0854 17.5827 16.25 17.1852 16.25 16.7708V5.83333H16.7708C16.909 5.83333 17.0414 5.77846 17.1391 5.68078C17.2368 5.58311 17.2917 5.45063 17.2917 5.3125V4.79166C17.2917 4.65353 17.2368 4.52105 17.1391 4.42338C17.0414 4.3257 16.909 4.27083 16.7708 4.27083ZM8.30209 3.32389C8.31949 3.29492 8.34412 3.27096 8.37356 3.25435C8.40301 3.23775 8.43625 3.22907 8.47005 3.22916H11.53C11.5637 3.22913 11.5969 3.23783 11.6263 3.25443C11.6556 3.27103 11.6802 3.29496 11.6976 3.32389L12.266 4.27083H7.73405L8.30209 3.32389ZM14.6875 16.7708H5.3125V5.83333H14.6875V16.7708ZM7.78646 15.2083H8.56771C8.67131 15.2083 8.77067 15.1672 8.84392 15.0939C8.91718 15.0207 8.95834 14.9213 8.95834 14.8177V7.78646C8.95834 7.68286 8.91718 7.5835 8.84392 7.51024C8.77067 7.43699 8.67131 7.39583 8.56771 7.39583H7.78646C7.68286 7.39583 7.5835 7.43699 7.51025 7.51024C7.43699 7.5835 7.39584 7.68286 7.39584 7.78646V14.8177C7.39584 14.9213 7.43699 15.0207 7.51025 15.0939C7.5835 15.1672 7.68286 15.2083 7.78646 15.2083Z" fill="#1697B7"/>
</svg>
