<svg width="108" height="30" viewBox="0 0 108 30" fill="none" xmlns="http://www.w3.org/2000/svg">
<rect width="46" height="30" fill="#1697B7"/>
<path d="M12.642 21.09C11.802 21.09 11.016 20.922 10.284 20.586C9.552 20.25 8.904 19.788 8.34 19.2C7.788 18.6 7.356 17.904 7.044 17.112C6.732 16.32 6.576 15.462 6.576 14.538C6.576 13.662 6.732 12.84 7.044 12.072C7.356 11.292 7.794 10.608 8.358 10.02C8.922 9.432 9.582 8.97 10.338 8.634C11.094 8.298 11.916 8.13 12.804 8.13C13.992 8.13 15.018 8.388 15.882 8.904C16.746 9.408 17.394 10.08 17.826 10.92L15.972 12.288C15.648 11.664 15.192 11.184 14.604 10.848C14.028 10.5 13.398 10.326 12.714 10.326C11.994 10.326 11.358 10.524 10.806 10.92C10.266 11.316 9.84 11.838 9.528 12.486C9.228 13.134 9.078 13.842 9.078 14.61C9.078 15.414 9.24 16.14 9.564 16.788C9.888 17.436 10.332 17.952 10.896 18.336C11.472 18.708 12.126 18.894 12.858 18.894C14.094 18.894 15.21 18.312 16.206 17.148V16.248H13.632V14.43H18.258V21H16.206V19.56C15.174 20.58 13.986 21.09 12.642 21.09ZM29.249 18.822V21H20.375V8.22H29.087V10.398H22.859V13.476H28.241V15.492H22.859V18.822H29.249ZM40.7435 10.398H36.6575V21H34.1915V10.398H30.1055V8.22H40.7435V10.398Z" fill="white"/>
<path d="M41.702 18.52C41.702 17.74 41.834 16.978 42.098 16.234C42.374 15.478 42.77 14.794 43.286 14.182C43.814 13.558 44.456 13.066 45.212 12.706C45.968 12.334 46.826 12.148 47.786 12.148C48.926 12.148 49.904 12.412 50.72 12.94C51.536 13.456 52.142 14.122 52.538 14.938L51.26 15.766C51.008 15.226 50.684 14.8 50.288 14.488C49.904 14.164 49.484 13.936 49.028 13.804C48.584 13.672 48.146 13.606 47.714 13.606C47.006 13.606 46.376 13.75 45.824 14.038C45.284 14.326 44.828 14.71 44.456 15.19C44.084 15.67 43.802 16.21 43.61 16.81C43.43 17.398 43.34 17.992 43.34 18.592C43.34 19.252 43.448 19.888 43.664 20.5C43.892 21.112 44.204 21.652 44.6 22.12C44.996 22.588 45.464 22.96 46.004 23.236C46.544 23.512 47.132 23.65 47.768 23.65C48.212 23.65 48.668 23.572 49.136 23.416C49.604 23.26 50.042 23.02 50.45 22.696C50.858 22.36 51.182 21.928 51.422 21.4L52.772 22.138C52.508 22.774 52.1 23.314 51.548 23.758C50.996 24.202 50.378 24.538 49.694 24.766C49.022 24.994 48.356 25.108 47.696 25.108C46.82 25.108 46.016 24.922 45.284 24.55C44.552 24.166 43.916 23.662 43.376 23.038C42.848 22.402 42.434 21.694 42.134 20.914C41.846 20.122 41.702 19.324 41.702 18.52ZM58.6515 25.18C57.7155 25.18 56.8875 24.958 56.1675 24.514C55.4595 24.058 54.9075 23.464 54.5115 22.732C54.1155 21.988 53.9175 21.184 53.9175 20.32C53.9175 19.444 54.1155 18.64 54.5115 17.908C54.9195 17.164 55.4775 16.57 56.1855 16.126C56.9055 15.67 57.7275 15.442 58.6515 15.442C59.5875 15.442 60.4095 15.67 61.1175 16.126C61.8375 16.57 62.3955 17.164 62.7915 17.908C63.1995 18.64 63.4035 19.444 63.4035 20.32C63.4035 21.184 63.1995 21.988 62.7915 22.732C62.3955 23.464 61.8435 24.058 61.1355 24.514C60.4275 24.958 59.5995 25.18 58.6515 25.18ZM55.5375 20.338C55.5375 20.986 55.6755 21.574 55.9515 22.102C56.2395 22.63 56.6175 23.05 57.0855 23.362C57.5535 23.662 58.0755 23.812 58.6515 23.812C59.2275 23.812 59.7495 23.656 60.2175 23.344C60.6975 23.032 61.0755 22.612 61.3515 22.084C61.6395 21.544 61.7835 20.95 61.7835 20.302C61.7835 19.654 61.6395 19.066 61.3515 18.538C61.0755 18.01 60.6975 17.59 60.2175 17.278C59.7495 16.966 59.2275 16.81 58.6515 16.81C58.0755 16.81 57.5535 16.972 57.0855 17.296C56.6175 17.608 56.2395 18.028 55.9515 18.556C55.6755 19.084 55.5375 19.678 55.5375 20.338ZM65.2329 21.238V15.604H66.8169V20.932C66.8169 22.852 67.4829 23.812 68.8149 23.812C69.4629 23.812 70.0689 23.608 70.6329 23.2C71.2089 22.78 71.6349 22.21 71.9109 21.49V15.604H73.4949V23.2C73.4949 23.572 73.6629 23.764 73.9989 23.776V25C73.8189 25.024 73.6749 25.036 73.5669 25.036C73.4709 25.048 73.3749 25.054 73.2789 25.054C72.9789 25.054 72.7209 24.964 72.5049 24.784C72.2889 24.592 72.1749 24.358 72.1629 24.082L72.1269 22.984C71.7189 23.68 71.1669 24.22 70.4709 24.604C69.7869 24.988 69.0369 25.18 68.2209 25.18C66.2289 25.18 65.2329 23.866 65.2329 21.238ZM81.1915 25.18C80.4235 25.18 79.7395 24.988 79.1395 24.604C78.5395 24.22 78.0655 23.734 77.7175 23.146V28.834H76.1335V15.604H77.5375V17.368C77.9095 16.792 78.3955 16.33 78.9955 15.982C79.5955 15.622 80.2495 15.442 80.9575 15.442C81.6055 15.442 82.1995 15.574 82.7395 15.838C83.2795 16.102 83.7475 16.462 84.1435 16.918C84.5395 17.374 84.8455 17.896 85.0615 18.484C85.2895 19.06 85.4035 19.666 85.4035 20.302C85.4035 21.19 85.2235 22.006 84.8635 22.75C84.5155 23.494 84.0235 24.088 83.3875 24.532C82.7515 24.964 82.0195 25.18 81.1915 25.18ZM80.7055 23.812C81.3295 23.812 81.8695 23.644 82.3255 23.308C82.7815 22.972 83.1355 22.534 83.3875 21.994C83.6515 21.454 83.7835 20.89 83.7835 20.302C83.7835 19.666 83.6395 19.084 83.3515 18.556C83.0755 18.028 82.6915 17.608 82.1995 17.296C81.7195 16.972 81.1735 16.81 80.5615 16.81C80.1895 16.81 79.7935 16.906 79.3735 17.098C78.9655 17.29 78.6055 17.548 78.2935 17.872C77.9935 18.184 77.8015 18.532 77.7175 18.916V21.598C77.9815 22.222 78.3835 22.75 78.9235 23.182C79.4755 23.602 80.0695 23.812 80.7055 23.812ZM91.4523 25.18C90.5163 25.18 89.6883 24.958 88.9683 24.514C88.2603 24.058 87.7083 23.464 87.3123 22.732C86.9163 21.988 86.7183 21.184 86.7183 20.32C86.7183 19.444 86.9163 18.64 87.3123 17.908C87.7203 17.164 88.2783 16.57 88.9863 16.126C89.7063 15.67 90.5283 15.442 91.4523 15.442C92.3883 15.442 93.2103 15.67 93.9183 16.126C94.6383 16.57 95.1963 17.164 95.5923 17.908C96.0003 18.64 96.2043 19.444 96.2043 20.32C96.2043 21.184 96.0003 21.988 95.5923 22.732C95.1963 23.464 94.6443 24.058 93.9363 24.514C93.2283 24.958 92.4003 25.18 91.4523 25.18ZM88.3383 20.338C88.3383 20.986 88.4763 21.574 88.7523 22.102C89.0403 22.63 89.4183 23.05 89.8863 23.362C90.3543 23.662 90.8763 23.812 91.4523 23.812C92.0283 23.812 92.5503 23.656 93.0183 23.344C93.4983 23.032 93.8763 22.612 94.1523 22.084C94.4403 21.544 94.5843 20.95 94.5843 20.302C94.5843 19.654 94.4403 19.066 94.1523 18.538C93.8763 18.01 93.4983 17.59 93.0183 17.278C92.5503 16.966 92.0283 16.81 91.4523 16.81C90.8763 16.81 90.3543 16.972 89.8863 17.296C89.4183 17.608 89.0403 18.028 88.7523 18.556C88.4763 19.084 88.3383 19.678 88.3383 20.338ZM106.278 25H104.694V19.744C104.694 18.748 104.538 18.022 104.226 17.566C103.926 17.098 103.464 16.864 102.84 16.864C102.408 16.864 101.976 16.972 101.544 17.188C101.124 17.404 100.746 17.698 100.41 18.07C100.086 18.43 99.8517 18.85 99.7077 19.33V25H98.1237V15.604H99.5637V17.62C99.9357 16.96 100.47 16.432 101.166 16.036C101.874 15.64 102.642 15.442 103.47 15.442C104.202 15.442 104.766 15.616 105.162 15.964C105.57 16.3 105.858 16.768 106.026 17.368C106.194 17.956 106.278 18.628 106.278 19.384V25Z" fill="#E8804C"/>
</svg>
