<svg width="245" height="239" viewBox="0 0 245 239" fill="none" xmlns="http://www.w3.org/2000/svg">
<path d="M148.703 238.406C201.559 238.406 244.406 195.559 244.406 142.703C244.406 89.8477 201.559 47 148.703 47C95.8477 47 53 89.8477 53 142.703C53 195.559 95.8477 238.406 148.703 238.406Z" fill="#F24976"/>
<path d="M200 188.235L188.235 192.157L176.471 188.235V177.376L172.549 120.654L176.471 57.9184V47.0588H200V188.235Z" fill="#FEBF00"/>
<path d="M200 200H176.471V199.216L172.549 194.118L176.471 189.02V188.235H200V200Z" fill="#FE9E23"/>
<path d="M176.471 188.235L164.706 192.157L152.941 188.235V177.255L149.02 105.882L152.941 34.5098V23.5294H176.471V188.235Z" fill="#60D64D"/>
<path d="M176.471 200H152.941V199.216L149.02 194.118L152.941 189.02V188.235H176.471V200Z" fill="#00C97D"/>
<path d="M76.4706 188.235L38.2353 192.157L0 188.235V11.7647L35.9482 7.84311L76.4706 11.7647L80.3922 102.876L76.4706 188.235Z" fill="#ECF5FF"/>
<path d="M152.941 188.235L111.765 192.157L76.4707 188.235V11.7647L114.706 7.84311L152.941 11.7647V188.235Z" fill="#D6E8FE"/>
<path d="M76.4707 105.882H129.412V117.647H76.4707V105.882Z" fill="#48578D"/>
<path d="M76.4707 135.294H129.412V147.059H76.4707V135.294Z" fill="#25D9F8"/>
<path d="M76.4707 164.706H129.412V176.471H76.4707V164.706Z" fill="#48578D"/>
<path d="M41.8128 136.014L25.2524 119.453L33.5709 111.135L40.5399 118.104L54.1175 100L63.5293 107.059L41.8128 136.014Z" fill="#ABE751"/>
<path d="M41.8128 176.406L25.2524 159.845L33.5709 151.527L40.5399 158.496L54.1175 140.392L63.5293 147.451L41.8128 176.406Z" fill="#ABE751"/>
<path d="M76.4706 11.7647H0V0H76.4706L80.3922 6.2102L76.4706 11.7647Z" fill="#D6E8FE"/>
<path d="M152.941 11.7647H76.4707V0H152.941V11.7647Z" fill="#B5DBFF"/>
<path d="M76.4706 200H0V188.235H76.4706L80.3922 194.118L76.4706 200Z" fill="#D6E8FE"/>
<path d="M152.941 200H76.4707V188.235H152.941V200Z" fill="#B5DBFF"/>
<path d="M66.071 48.6219C51.6695 53.0714 41.1765 66.5098 41.1765 82.3529V88.2353H76.4706L80.3922 71.242L76.4706 52.9412L66.071 48.6219Z" fill="#FF835B"/>
<path d="M76.4707 52.9416V88.2353H111.765V82.3529C111.765 66.5408 101.313 53.1239 86.9546 48.6482L76.4707 52.9416Z" fill="#FF5757"/>
<path d="M61.7646 38.2353C61.7646 46.3443 68.3615 52.9412 76.4705 52.9412L80.3921 38.2353L76.4705 23.5294C68.3615 23.5294 61.7646 30.1263 61.7646 38.2353Z" fill="#FFCCBD"/>
<path d="M76.4707 23.5294V52.9412C84.5797 52.9412 91.1766 46.3443 91.1766 38.2353C91.1766 30.1263 84.5797 23.5294 76.4707 23.5294Z" fill="#FFBDA9"/>
</svg>
