<svg width="206" height="200" viewBox="0 0 206 200" fill="none" xmlns="http://www.w3.org/2000/svg">
<path d="M109.703 191.406C162.559 191.406 205.406 148.559 205.406 95.7031C205.406 42.8477 162.559 0 109.703 0C56.8477 0 14 42.8477 14 95.7031C14 148.559 56.8477 191.406 109.703 191.406Z" fill="#3A9CC9"/>
<path d="M113.492 193.898L105.254 166.44H74.7458L66.5079 193.898H56.4407V200H123.559V193.898H113.492Z" fill="#E0E0DE"/>
<path d="M108 175.593L105.254 166.44H74.7457L72.0002 175.593H108Z" fill="#D6D6D4"/>
<path d="M10.6779 44.4067C5.62348 44.4067 1.52539 48.5048 1.52539 53.5593V148.136H178.475V53.5593C178.475 48.5048 174.376 44.4067 169.322 44.4067H10.6779Z" fill="#348FD9"/>
<path d="M1.52539 142.034H178.475V148.135H1.52539V142.034Z" fill="#3086CD"/>
<path d="M1.52539 148.136V157.288C1.52539 162.343 5.62348 166.441 10.6779 166.441H169.322C174.376 166.441 178.475 162.343 178.475 157.288V148.136H1.52539Z" fill="#E0E0DE"/>
<path d="M151.017 20H28.9831C23.9287 20 19.8306 24.0981 19.8306 29.1525V148.136H160.17V29.1525C160.17 24.0981 156.071 20 151.017 20Z" fill="#60D1E0"/>
<path d="M35.0847 148.136H160.169V29.1525C160.164 27.1027 159.46 25.1155 158.178 23.5171L35.0847 148.136Z" fill="#60D1E0"/>
<path d="M28.9829 29.1523H35.0846V35.254H28.9829V29.1523Z" fill="#3A9CC9"/>
<path d="M41.1865 29.1523H47.2882V35.254H41.1865V29.1523Z" fill="#3A9CC9"/>
<path d="M53.3899 29.1523H59.4916V35.254H53.3899V29.1523Z" fill="#3A9CC9"/>
<path d="M53.3899 105.424H126.61C133.35 105.424 138.814 110.888 138.814 117.627C138.814 124.366 133.35 129.831 126.61 129.831H53.3899C46.6506 129.831 41.1865 124.366 41.1865 117.627C41.1865 110.888 46.6506 105.424 53.3899 105.424Z" fill="#E0E0DE"/>
<path d="M86.9492 114.576H93.0509V120.678H86.9492V114.576Z" fill="#3A9CC9"/>
<path d="M99.1526 114.576H105.254V120.678H99.1526V114.576Z" fill="#3A9CC9"/>
<path d="M74.7458 114.576H80.8475V120.678H74.7458V114.576Z" fill="#3A9CC9"/>
<path d="M62.5425 114.576H68.6442V120.678H62.5425V114.576Z" fill="#3A9CC9"/>
<path d="M50.3391 114.576H56.4408V120.678H50.3391V114.576Z" fill="#3A9CC9"/>
<path d="M114.407 68.8135C114.407 82.2936 103.48 93.2203 90 93.2203C76.52 93.2203 65.5933 82.2936 65.5933 68.8135C65.5933 55.3335 76.52 44.4067 90 44.4067C103.48 44.4067 114.407 55.3335 114.407 68.8135Z" fill="#348FD9"/>
<path d="M99.1525 65.7629C99.1525 70.8174 95.0544 74.9154 90 74.9154C84.9455 74.9154 80.8474 70.8174 80.8474 65.7629C80.8474 60.7084 84.9455 56.6104 90 56.6104C95.0544 56.6104 99.1525 60.7084 99.1525 65.7629Z" fill="#FEC9A3"/>
<path d="M106.957 86.344C104.152 79.4453 97.4468 74.9346 89.9999 74.9346C82.553 74.9346 75.848 79.4453 73.043 86.344C82.489 95.5114 97.5108 95.5114 106.957 86.344Z" fill="#3A9CC9"/>
<path d="M19.8306 142.034H160.17V148.135H19.8306V142.034Z" fill="#5AC6D4"/>
<path d="M155.093 145.167C153.32 144.864 151.504 145.36 150.131 146.521C148.757 147.681 147.965 149.388 147.966 151.186C147.966 147.817 145.234 145.085 141.864 145.085C138.495 145.085 135.763 147.817 135.763 151.186C135.763 147.817 133.031 145.085 129.661 145.085C126.291 145.085 123.559 147.817 123.559 151.186V123.729C123.628 120.663 121.489 117.989 118.483 117.383C116.71 117.08 114.894 117.576 113.52 118.737C112.147 119.897 111.354 121.604 111.356 123.402V169.491L98.6371 161.864C97.0566 160.912 95.0991 160.836 93.4501 161.663L92.9719 161.905C91.15 162.818 90 164.68 90 166.718C89.9985 168.458 90.8387 170.092 92.2539 171.102L111.356 184.746H160.169V151.513C160.238 148.447 158.099 145.774 155.093 145.167V145.167Z" fill="#FEC9A3"/>
<path d="M160.169 44.4067H166.271V148.136H160.169V44.4067Z" fill="#3086CD"/>
<path d="M160.169 148.136H166.271V166.441H160.169V148.136Z" fill="#D6D6D4"/>
<path d="M156.204 145.463C144.304 167.686 123.731 178.684 110.014 183.788L111.356 184.746H160.169V151.512C160.205 148.876 158.637 146.482 156.204 145.463V145.463Z" fill="#FEC9A3"/>
</svg>
