<svg width="625" height="355" viewBox="0 0 625 355" fill="none" xmlns="http://www.w3.org/2000/svg">
<path d="M178.5 14.5H4V335.5H231.5" stroke="#1697B7" stroke-width="7"/>
<path d="M456 14.5H621V335H414" stroke="#1697B7" stroke-width="7"/>
<path d="M230.86 70.16V85.76C230.86 90.4 230.34 94.16 229.3 97.04C228.26 99.84 227.26 102.2 226.3 104.12L165.58 232.76C163.9 236.12 161.5 239 158.38 241.4C155.34 243.8 151.26 245 146.14 245H119.02L181.42 119.84C183.26 116.48 185.1 113.44 186.94 110.72C188.86 107.92 190.98 105.28 193.3 102.8H116.38C115.26 102.8 114.18 102.6 113.14 102.2C112.18 101.72 111.3 101.12 110.5 100.4C109.78 99.6 109.18 98.72 108.7 97.76C108.22 96.72 107.98 95.68 107.98 94.64V70.16H230.86ZM372.119 157.52C372.119 172.8 370.479 186.04 367.199 197.24C363.919 208.44 359.359 217.72 353.519 225.08C347.759 232.44 340.879 237.92 332.879 241.52C324.959 245.12 316.359 246.92 307.079 246.92C297.799 246.92 289.199 245.12 281.279 241.52C273.439 237.92 266.639 232.44 260.879 225.08C255.119 217.72 250.599 208.44 247.319 197.24C244.119 186.04 242.519 172.8 242.519 157.52C242.519 142.24 244.119 129 247.319 117.8C250.599 106.6 255.119 97.32 260.879 89.96C266.639 82.6 273.439 77.16 281.279 73.64C289.199 70.04 297.799 68.24 307.079 68.24C316.359 68.24 324.959 70.04 332.879 73.64C340.879 77.16 347.759 82.6 353.519 89.96C359.359 97.32 363.919 106.6 367.199 117.8C370.479 129 372.119 142.24 372.119 157.52ZM333.719 157.52C333.719 145.44 332.959 135.56 331.439 127.88C329.919 120.12 327.879 114.04 325.319 109.64C322.839 105.24 319.999 102.24 316.799 100.64C313.599 98.96 310.359 98.12 307.079 98.12C303.799 98.12 300.559 98.96 297.359 100.64C294.239 102.24 291.439 105.24 288.959 109.64C286.559 114.04 284.599 120.12 283.079 127.88C281.639 135.56 280.919 145.44 280.919 157.52C280.919 169.68 281.639 179.6 283.079 187.28C284.599 194.96 286.559 201.04 288.959 205.52C291.439 209.92 294.239 212.96 297.359 214.64C300.559 216.24 303.799 217.04 307.079 217.04C310.359 217.04 313.599 216.24 316.799 214.64C319.999 212.96 322.839 209.92 325.319 205.52C327.879 201.04 329.919 194.96 331.439 187.28C332.959 179.6 333.719 169.68 333.719 157.52Z" fill="#1697B7"/>
<path d="M460.64 110.088C460.64 114.024 459.968 117.576 458.624 120.744C457.328 123.912 455.576 126.624 453.368 128.88C451.16 131.088 448.592 132.792 445.664 133.992C442.736 135.192 439.688 135.792 436.52 135.792C433.064 135.792 429.872 135.192 426.944 133.992C424.016 132.792 421.472 131.088 419.312 128.88C417.2 126.624 415.544 123.912 414.344 120.744C413.144 117.576 412.544 114.024 412.544 110.088C412.544 106.056 413.144 102.408 414.344 99.144C415.544 95.88 417.2 93.12 419.312 90.864C421.472 88.608 424.016 86.88 426.944 85.68C429.872 84.432 433.064 83.808 436.52 83.808C439.976 83.808 443.168 84.432 446.096 85.68C449.072 86.88 451.64 88.608 453.8 90.864C455.96 93.12 457.64 95.88 458.84 99.144C460.04 102.408 460.64 106.056 460.64 110.088ZM446.96 110.088C446.96 107.304 446.672 104.976 446.096 103.104C445.568 101.232 444.824 99.72 443.864 98.568C442.952 97.416 441.848 96.6 440.552 96.12C439.304 95.592 437.96 95.328 436.52 95.328C435.08 95.328 433.736 95.592 432.488 96.12C431.24 96.6 430.16 97.416 429.248 98.568C428.384 99.72 427.688 101.232 427.16 103.104C426.632 104.976 426.368 107.304 426.368 110.088C426.368 112.776 426.632 115.032 427.16 116.856C427.688 118.632 428.384 120.072 429.248 121.176C430.16 122.28 431.24 123.072 432.488 123.552C433.736 124.032 435.08 124.272 436.52 124.272C437.96 124.272 439.304 124.032 440.552 123.552C441.848 123.072 442.952 122.28 443.864 121.176C444.824 120.072 445.568 118.632 446.096 116.856C446.672 115.032 446.96 112.776 446.96 110.088ZM495.272 87.696C495.896 86.976 496.616 86.328 497.432 85.752C498.296 85.176 499.496 84.888 501.032 84.888H513.992L436.664 186.336C436.04 187.104 435.296 187.752 434.432 188.28C433.568 188.76 432.512 189 431.264 189H418.016L495.272 87.696ZM519.464 164.52C519.464 168.456 518.792 172.008 517.448 175.176C516.152 178.344 514.4 181.056 512.192 183.312C509.984 185.52 507.416 187.248 504.488 188.496C501.56 189.696 498.512 190.296 495.344 190.296C491.888 190.296 488.696 189.696 485.768 188.496C482.84 187.248 480.296 185.52 478.136 183.312C476.024 181.056 474.368 178.344 473.168 175.176C471.968 172.008 471.368 168.456 471.368 164.52C471.368 160.488 471.968 156.84 473.168 153.576C474.368 150.312 476.024 147.552 478.136 145.296C480.296 143.04 482.84 141.312 485.768 140.112C488.696 138.864 491.888 138.24 495.344 138.24C498.8 138.24 501.992 138.864 504.92 140.112C507.896 141.312 510.44 143.04 512.552 145.296C514.712 147.552 516.392 150.312 517.592 153.576C518.84 156.84 519.464 160.488 519.464 164.52ZM505.712 164.52C505.712 161.736 505.448 159.408 504.92 157.536C504.392 155.664 503.648 154.152 502.688 153C501.776 151.848 500.672 151.032 499.376 150.552C498.128 150.024 496.784 149.76 495.344 149.76C493.904 149.76 492.56 150.024 491.312 150.552C490.064 151.032 488.984 151.848 488.072 153C487.16 154.152 486.44 155.664 485.912 157.536C485.432 159.408 485.192 161.736 485.192 164.52C485.192 167.208 485.432 169.464 485.912 171.288C486.44 173.112 487.16 174.576 488.072 175.68C488.984 176.784 490.064 177.576 491.312 178.056C492.56 178.536 493.904 178.776 495.344 178.776C496.784 178.776 498.128 178.536 499.376 178.056C500.672 177.576 501.776 176.784 502.688 175.68C503.648 174.576 504.392 173.112 504.92 171.288C505.448 169.464 505.712 167.208 505.712 164.52Z" fill="#212121"/>
<path d="M455.78 221.864C455.78 225.256 455.215 228.403 454.084 231.304C452.975 234.184 451.396 236.68 449.348 238.792C447.3 240.904 444.836 242.557 441.956 243.752C439.076 244.925 435.876 245.512 432.356 245.512C428.857 245.512 425.668 244.925 422.788 243.752C419.908 242.557 417.433 240.904 415.364 238.792C413.316 236.68 411.727 234.184 410.596 231.304C409.465 228.403 408.9 225.256 408.9 221.864C408.9 218.472 409.465 215.336 410.596 212.456C411.727 209.555 413.316 207.048 415.364 204.936C417.433 202.824 419.908 201.181 422.788 200.008C425.668 198.813 428.857 198.216 432.356 198.216C434.703 198.216 436.911 198.493 438.98 199.048C441.049 199.581 442.948 200.349 444.676 201.352C446.404 202.333 447.951 203.539 449.316 204.968C450.703 206.376 451.876 207.955 452.836 209.704C453.796 211.453 454.521 213.352 455.012 215.4C455.524 217.448 455.78 219.603 455.78 221.864ZM446.98 221.864C446.98 219.325 446.639 217.053 445.956 215.048C445.273 213.021 444.303 211.304 443.044 209.896C441.785 208.488 440.249 207.411 438.436 206.664C436.644 205.917 434.617 205.544 432.356 205.544C430.095 205.544 428.057 205.917 426.244 206.664C424.452 207.411 422.916 208.488 421.636 209.896C420.377 211.304 419.407 213.021 418.724 215.048C418.041 217.053 417.7 219.325 417.7 221.864C417.7 224.403 418.041 226.685 418.724 228.712C419.407 230.717 420.377 232.424 421.636 233.832C422.916 235.219 424.452 236.285 426.244 237.032C428.057 237.779 430.095 238.152 432.356 238.152C434.617 238.152 436.644 237.779 438.436 237.032C440.249 236.285 441.785 235.219 443.044 233.832C444.303 232.424 445.273 230.717 445.956 228.712C446.639 226.685 446.98 224.403 446.98 221.864ZM471.98 205.576V219.272H489.324V226.152H471.98V245H463.34V198.728H492.524V205.576H471.98ZM508.23 205.576V219.272H525.574V226.152H508.23V245H499.59V198.728H528.774V205.576H508.23Z" fill="#E8804C"/>
<path d="M202.008 21.24C202.584 21.24 203.056 21.172 203.424 21.036C203.8 20.892 204.1 20.704 204.324 20.472C204.548 20.24 204.704 19.976 204.792 19.68C204.88 19.376 204.924 19.064 204.924 18.744C204.924 18.392 204.872 18.076 204.768 17.796C204.664 17.516 204.496 17.28 204.264 17.088C204.032 16.888 203.728 16.736 203.352 16.632C202.984 16.528 202.528 16.476 201.984 16.476H198.924V21.24H202.008ZM198.924 9.324V14.028H201.288C201.792 14.028 202.24 13.988 202.632 13.908C203.024 13.82 203.352 13.684 203.616 13.5C203.88 13.316 204.08 13.076 204.216 12.78C204.36 12.476 204.432 12.112 204.432 11.688C204.432 11.256 204.372 10.888 204.252 10.584C204.14 10.28 203.964 10.036 203.724 9.852C203.484 9.668 203.18 9.536 202.812 9.456C202.444 9.368 202.008 9.324 201.504 9.324H198.924ZM201.504 6.588C202.672 6.588 203.668 6.7 204.492 6.924C205.324 7.14 206 7.452 206.52 7.86C207.048 8.26 207.432 8.748 207.672 9.324C207.912 9.9 208.032 10.544 208.032 11.256C208.032 11.656 207.972 12.04 207.852 12.408C207.74 12.776 207.56 13.124 207.312 13.452C207.072 13.772 206.76 14.064 206.376 14.328C205.992 14.592 205.536 14.816 205.008 15C206.192 15.28 207.068 15.736 207.636 16.368C208.204 17 208.488 17.82 208.488 18.828C208.488 19.564 208.344 20.248 208.056 20.88C207.776 21.512 207.364 22.06 206.82 22.524C206.276 22.988 205.604 23.352 204.804 23.616C204.012 23.872 203.1 24 202.068 24H195.324V6.588H201.504ZM222.862 24H219.238V6.588H222.862V24ZM242.976 15.132H248.952V22.32C248.064 22.968 247.116 23.444 246.108 23.748C245.108 24.044 244.048 24.192 242.928 24.192C241.496 24.192 240.2 23.972 239.04 23.532C237.88 23.084 236.888 22.464 236.064 21.672C235.24 20.88 234.604 19.94 234.156 18.852C233.708 17.764 233.484 16.576 233.484 15.288C233.484 13.984 233.696 12.788 234.12 11.7C234.552 10.612 235.164 9.676 235.956 8.892C236.748 8.108 237.704 7.496 238.824 7.056C239.952 6.616 241.212 6.396 242.604 6.396C243.324 6.396 243.996 6.456 244.62 6.576C245.244 6.688 245.82 6.848 246.348 7.056C246.876 7.256 247.36 7.496 247.8 7.776C248.24 8.056 248.64 8.364 249 8.7L247.956 10.308C247.796 10.564 247.588 10.72 247.332 10.776C247.076 10.832 246.796 10.768 246.492 10.584C246.204 10.408 245.92 10.252 245.64 10.116C245.368 9.972 245.076 9.848 244.764 9.744C244.452 9.64 244.112 9.56 243.744 9.504C243.376 9.448 242.952 9.42 242.472 9.42C241.664 9.42 240.932 9.56 240.276 9.84C239.62 10.12 239.06 10.516 238.596 11.028C238.14 11.54 237.788 12.156 237.54 12.876C237.292 13.596 237.168 14.4 237.168 15.288C237.168 16.248 237.304 17.108 237.576 17.868C237.848 18.62 238.232 19.256 238.728 19.776C239.224 20.296 239.816 20.692 240.504 20.964C241.2 21.236 241.972 21.372 242.82 21.372C243.396 21.372 243.908 21.316 244.356 21.204C244.812 21.084 245.256 20.924 245.688 20.724V17.796H243.72C243.488 17.796 243.304 17.736 243.168 17.616C243.04 17.488 242.976 17.328 242.976 17.136V15.132ZM268.366 15.132H274.342V22.32C273.454 22.968 272.506 23.444 271.498 23.748C270.498 24.044 269.438 24.192 268.318 24.192C266.886 24.192 265.59 23.972 264.43 23.532C263.27 23.084 262.278 22.464 261.454 21.672C260.63 20.88 259.994 19.94 259.546 18.852C259.098 17.764 258.874 16.576 258.874 15.288C258.874 13.984 259.086 12.788 259.51 11.7C259.942 10.612 260.554 9.676 261.346 8.892C262.138 8.108 263.094 7.496 264.214 7.056C265.342 6.616 266.602 6.396 267.994 6.396C268.714 6.396 269.386 6.456 270.01 6.576C270.634 6.688 271.21 6.848 271.738 7.056C272.266 7.256 272.75 7.496 273.19 7.776C273.63 8.056 274.03 8.364 274.39 8.7L273.346 10.308C273.186 10.564 272.978 10.72 272.722 10.776C272.466 10.832 272.186 10.768 271.882 10.584C271.594 10.408 271.31 10.252 271.03 10.116C270.758 9.972 270.466 9.848 270.154 9.744C269.842 9.64 269.502 9.56 269.134 9.504C268.766 9.448 268.342 9.42 267.862 9.42C267.054 9.42 266.322 9.56 265.666 9.84C265.01 10.12 264.45 10.516 263.986 11.028C263.53 11.54 263.178 12.156 262.93 12.876C262.682 13.596 262.558 14.4 262.558 15.288C262.558 16.248 262.694 17.108 262.966 17.868C263.238 18.62 263.622 19.256 264.118 19.776C264.614 20.296 265.206 20.692 265.894 20.964C266.59 21.236 267.362 21.372 268.21 21.372C268.786 21.372 269.298 21.316 269.746 21.204C270.202 21.084 270.646 20.924 271.078 20.724V17.796H269.11C268.878 17.796 268.694 17.736 268.558 17.616C268.43 17.488 268.366 17.328 268.366 17.136V15.132ZM288.909 9.408V13.884H294.717V16.608H288.909V21.18H296.373V24H285.285V6.588H296.373V9.408H288.909ZM316.498 9.924C316.386 10.108 316.27 10.244 316.15 10.332C316.038 10.412 315.89 10.452 315.706 10.452C315.53 10.452 315.338 10.392 315.13 10.272C314.93 10.144 314.694 10.008 314.422 9.864C314.15 9.72 313.838 9.588 313.486 9.468C313.134 9.34 312.722 9.276 312.25 9.276C311.418 9.276 310.794 9.464 310.378 9.84C309.962 10.208 309.754 10.692 309.754 11.292C309.754 11.676 309.866 11.996 310.09 12.252C310.322 12.5 310.622 12.716 310.99 12.9C311.366 13.084 311.79 13.248 312.262 13.392C312.734 13.536 313.218 13.696 313.714 13.872C314.21 14.04 314.694 14.24 315.166 14.472C315.638 14.704 316.058 14.996 316.426 15.348C316.802 15.7 317.102 16.132 317.326 16.644C317.558 17.148 317.674 17.764 317.674 18.492C317.674 19.284 317.534 20.028 317.254 20.724C316.982 21.412 316.586 22.016 316.066 22.536C315.546 23.048 314.902 23.452 314.134 23.748C313.374 24.044 312.51 24.192 311.542 24.192C310.99 24.192 310.438 24.136 309.886 24.024C309.342 23.912 308.814 23.756 308.302 23.556C307.798 23.356 307.322 23.116 306.874 22.836C306.426 22.556 306.034 22.244 305.698 21.9L306.754 20.196C306.842 20.068 306.958 19.964 307.102 19.884C307.246 19.796 307.398 19.752 307.558 19.752C307.774 19.752 308.002 19.832 308.242 19.992C308.482 20.152 308.758 20.328 309.07 20.52C309.382 20.712 309.742 20.888 310.15 21.048C310.566 21.208 311.062 21.288 311.638 21.288C312.478 21.288 313.126 21.096 313.582 20.712C314.046 20.328 314.278 19.756 314.278 18.996C314.278 18.556 314.162 18.2 313.93 17.928C313.706 17.656 313.41 17.428 313.042 17.244C312.674 17.06 312.254 16.904 311.782 16.776C311.31 16.64 310.826 16.492 310.33 16.332C309.834 16.172 309.35 15.98 308.878 15.756C308.406 15.532 307.986 15.236 307.618 14.868C307.25 14.5 306.95 14.044 306.718 13.5C306.494 12.956 306.382 12.28 306.382 11.472C306.382 10.824 306.51 10.196 306.766 9.588C307.022 8.98 307.398 8.44 307.894 7.968C308.39 7.496 308.998 7.116 309.718 6.828C310.446 6.54 311.278 6.396 312.214 6.396C313.262 6.396 314.23 6.56 315.118 6.888C316.014 7.208 316.77 7.656 317.386 8.232L316.498 9.924ZM340.609 9.492H335.521V24H331.909V9.492H326.821V6.588H340.609V9.492ZM373.17 9.924C373.058 10.108 372.942 10.244 372.822 10.332C372.71 10.412 372.562 10.452 372.378 10.452C372.202 10.452 372.01 10.392 371.802 10.272C371.602 10.144 371.366 10.008 371.094 9.864C370.822 9.72 370.51 9.588 370.158 9.468C369.806 9.34 369.394 9.276 368.922 9.276C368.09 9.276 367.466 9.464 367.05 9.84C366.634 10.208 366.426 10.692 366.426 11.292C366.426 11.676 366.538 11.996 366.762 12.252C366.994 12.5 367.294 12.716 367.662 12.9C368.038 13.084 368.462 13.248 368.934 13.392C369.406 13.536 369.89 13.696 370.386 13.872C370.882 14.04 371.366 14.24 371.838 14.472C372.31 14.704 372.73 14.996 373.098 15.348C373.474 15.7 373.774 16.132 373.998 16.644C374.23 17.148 374.346 17.764 374.346 18.492C374.346 19.284 374.206 20.028 373.926 20.724C373.654 21.412 373.258 22.016 372.738 22.536C372.218 23.048 371.574 23.452 370.806 23.748C370.046 24.044 369.182 24.192 368.214 24.192C367.662 24.192 367.11 24.136 366.558 24.024C366.014 23.912 365.486 23.756 364.974 23.556C364.47 23.356 363.994 23.116 363.546 22.836C363.098 22.556 362.706 22.244 362.37 21.9L363.426 20.196C363.514 20.068 363.63 19.964 363.774 19.884C363.918 19.796 364.07 19.752 364.23 19.752C364.446 19.752 364.674 19.832 364.914 19.992C365.154 20.152 365.43 20.328 365.742 20.52C366.054 20.712 366.414 20.888 366.822 21.048C367.238 21.208 367.734 21.288 368.31 21.288C369.15 21.288 369.798 21.096 370.254 20.712C370.718 20.328 370.95 19.756 370.95 18.996C370.95 18.556 370.834 18.2 370.602 17.928C370.378 17.656 370.082 17.428 369.714 17.244C369.346 17.06 368.926 16.904 368.454 16.776C367.982 16.64 367.498 16.492 367.002 16.332C366.506 16.172 366.022 15.98 365.55 15.756C365.078 15.532 364.658 15.236 364.29 14.868C363.922 14.5 363.622 14.044 363.39 13.5C363.166 12.956 363.054 12.28 363.054 11.472C363.054 10.824 363.182 10.196 363.438 9.588C363.694 8.98 364.07 8.44 364.566 7.968C365.062 7.496 365.67 7.116 366.39 6.828C367.118 6.54 367.95 6.396 368.886 6.396C369.934 6.396 370.902 6.56 371.79 6.888C372.686 7.208 373.442 7.656 374.058 8.232L373.17 9.924ZM393.774 17.388L391.89 12.06C391.778 11.78 391.658 11.452 391.53 11.076C391.41 10.7 391.294 10.292 391.182 9.852C391.07 10.3 390.95 10.716 390.822 11.1C390.702 11.476 390.586 11.804 390.474 12.084L388.602 17.388H393.774ZM399.822 24H397.026C396.714 24 396.458 23.928 396.258 23.784C396.066 23.632 395.922 23.44 395.826 23.208L394.65 19.884H387.714L386.538 23.208C386.458 23.408 386.318 23.592 386.118 23.76C385.918 23.92 385.666 24 385.362 24H382.542L389.346 6.588H393.03L399.822 24ZM419.765 21.072V24H409.433V6.588H413.033V21.072H419.765ZM433.596 9.408V13.884H439.404V16.608H433.596V21.18H441.06V24H429.972V6.588H441.06V9.408H433.596Z" fill="#E8804C"/>
<path d="M125.46 289.65L125.17 292H117.18L118.97 277.49H121.86L120.36 289.65H125.46ZM134.817 292H131.907L133.677 277.49H136.587L134.817 292ZM159.308 277.49L157.518 292H154.978L156.068 283.01C156.095 282.837 156.128 282.643 156.168 282.43C156.208 282.217 156.252 282 156.298 281.78L151.598 289.7C151.472 289.9 151.315 290.053 151.128 290.16C150.942 290.26 150.735 290.31 150.508 290.31H150.108C149.888 290.31 149.695 290.26 149.528 290.16C149.362 290.053 149.242 289.9 149.168 289.7L146.368 281.75C146.362 281.97 146.352 282.183 146.338 282.39C146.332 282.597 146.318 282.787 146.298 282.96L145.228 292H142.668L144.458 277.49H146.648C146.775 277.49 146.878 277.497 146.958 277.51C147.045 277.517 147.122 277.537 147.188 277.57C147.255 277.603 147.315 277.65 147.368 277.71C147.428 277.77 147.492 277.847 147.558 277.94L150.358 285.94C150.425 286.127 150.485 286.32 150.538 286.52C150.592 286.713 150.642 286.91 150.688 287.11C150.782 286.91 150.878 286.713 150.978 286.52C151.085 286.327 151.195 286.133 151.308 285.94L156.078 277.94C156.165 277.847 156.242 277.77 156.308 277.71C156.382 277.65 156.455 277.603 156.528 277.57C156.608 277.537 156.692 277.517 156.778 277.51C156.865 277.497 156.972 277.49 157.098 277.49H159.308ZM168.293 292H165.383L167.153 277.49H170.063L168.293 292ZM187.105 279.83H183.265L181.765 292H178.885L180.365 279.83H176.515L176.795 277.49H187.405L187.105 279.83ZM196.795 279.76L196.325 283.6H200.695L200.405 285.79H196.055L195.565 289.73H201.215L200.935 292H192.375L194.165 277.49H202.705L202.415 279.76H196.795ZM221.108 283.79C221.108 284.583 221.018 285.34 220.838 286.06C220.665 286.773 220.411 287.437 220.078 288.05C219.751 288.657 219.355 289.203 218.888 289.69C218.421 290.177 217.895 290.593 217.308 290.94C216.728 291.28 216.095 291.543 215.408 291.73C214.728 291.91 214.011 292 213.258 292H208.098L209.888 277.49H215.048C215.981 277.49 216.821 277.65 217.568 277.97C218.321 278.283 218.958 278.72 219.478 279.28C220.005 279.84 220.408 280.507 220.688 281.28C220.968 282.047 221.108 282.883 221.108 283.79ZM218.138 283.86C218.138 283.233 218.061 282.667 217.908 282.16C217.761 281.653 217.545 281.223 217.258 280.87C216.971 280.51 216.618 280.233 216.198 280.04C215.785 279.847 215.308 279.75 214.768 279.75H212.518L211.298 289.73H213.538C214.238 289.73 214.871 289.593 215.438 289.32C216.005 289.047 216.488 288.657 216.888 288.15C217.288 287.643 217.595 287.03 217.808 286.31C218.028 285.583 218.138 284.767 218.138 283.86ZM246.91 279.83H243.07L241.57 292H238.69L240.17 279.83H236.32L236.6 277.49H247.21L246.91 279.83ZM255.09 292H252.18L253.95 277.49H256.86L255.09 292ZM279.582 277.49L277.792 292H275.252L276.342 283.01C276.368 282.837 276.402 282.643 276.442 282.43C276.482 282.217 276.525 282 276.572 281.78L271.872 289.7C271.745 289.9 271.588 290.053 271.402 290.16C271.215 290.26 271.008 290.31 270.782 290.31H270.382C270.162 290.31 269.968 290.26 269.802 290.16C269.635 290.053 269.515 289.9 269.442 289.7L266.642 281.75C266.635 281.97 266.625 282.183 266.612 282.39C266.605 282.597 266.592 282.787 266.572 282.96L265.502 292H262.942L264.732 277.49H266.922C267.048 277.49 267.152 277.497 267.232 277.51C267.318 277.517 267.395 277.537 267.462 277.57C267.528 277.603 267.588 277.65 267.642 277.71C267.702 277.77 267.765 277.847 267.832 277.94L270.632 285.94C270.698 286.127 270.758 286.32 270.812 286.52C270.865 286.713 270.915 286.91 270.962 287.11C271.055 286.91 271.152 286.713 271.252 286.52C271.358 286.327 271.468 286.133 271.582 285.94L276.352 277.94C276.438 277.847 276.515 277.77 276.582 277.71C276.655 277.65 276.728 277.603 276.802 277.57C276.882 277.537 276.965 277.517 277.052 277.51C277.138 277.497 277.245 277.49 277.372 277.49H279.582ZM290.077 279.76L289.607 283.6H293.977L293.687 285.79H289.337L288.847 289.73H294.497L294.217 292H285.657L287.447 277.49H295.987L295.697 279.76H290.077ZM324.627 283.79C324.627 284.583 324.537 285.343 324.357 286.07C324.177 286.79 323.92 287.46 323.587 288.08C323.26 288.7 322.86 289.26 322.387 289.76C321.914 290.26 321.384 290.69 320.797 291.05C320.217 291.403 319.584 291.677 318.897 291.87C318.217 292.063 317.5 292.16 316.747 292.16C315.807 292.16 314.964 291.997 314.217 291.67C313.47 291.337 312.837 290.883 312.317 290.31C311.797 289.73 311.397 289.047 311.117 288.26C310.837 287.473 310.697 286.623 310.697 285.71C310.697 284.917 310.787 284.16 310.967 283.44C311.147 282.713 311.4 282.04 311.727 281.42C312.06 280.8 312.464 280.24 312.937 279.74C313.41 279.233 313.937 278.803 314.517 278.45C315.104 278.09 315.737 277.813 316.417 277.62C317.104 277.427 317.824 277.33 318.577 277.33C319.517 277.33 320.36 277.497 321.107 277.83C321.854 278.163 322.487 278.62 323.007 279.2C323.527 279.78 323.927 280.463 324.207 281.25C324.487 282.037 324.627 282.883 324.627 283.79ZM321.657 283.86C321.657 283.233 321.58 282.663 321.427 282.15C321.274 281.63 321.047 281.19 320.747 280.83C320.454 280.463 320.094 280.18 319.667 279.98C319.247 279.78 318.767 279.68 318.227 279.68C317.527 279.68 316.894 279.823 316.327 280.11C315.767 280.397 315.287 280.8 314.887 281.32C314.494 281.84 314.19 282.467 313.977 283.2C313.764 283.933 313.657 284.747 313.657 285.64C313.657 286.273 313.734 286.847 313.887 287.36C314.04 287.867 314.26 288.303 314.547 288.67C314.84 289.037 315.197 289.32 315.617 289.52C316.044 289.713 316.527 289.81 317.067 289.81C317.767 289.81 318.4 289.67 318.967 289.39C319.534 289.103 320.014 288.7 320.407 288.18C320.807 287.66 321.114 287.037 321.327 286.31C321.547 285.577 321.657 284.76 321.657 283.86ZM335.194 279.76L334.684 283.9H339.414L339.104 286.17H334.404L333.684 292H330.774L332.564 277.49H341.104L340.814 279.76H335.194ZM350.819 279.76L350.309 283.9H355.039L354.729 286.17H350.029L349.309 292H346.399L348.189 277.49H356.729L356.439 279.76H350.819ZM366.444 279.76L365.974 283.6H370.344L370.054 285.79H365.704L365.214 289.73H370.864L370.584 292H362.024L363.814 277.49H372.354L372.064 279.76H366.444ZM382.916 284.39C383.416 284.39 383.843 284.317 384.196 284.17C384.55 284.023 384.84 283.823 385.066 283.57C385.293 283.317 385.46 283.02 385.566 282.68C385.673 282.34 385.726 281.98 385.726 281.6C385.726 281.007 385.543 280.54 385.176 280.2C384.816 279.86 384.256 279.69 383.496 279.69H382.146L381.566 284.39H382.916ZM383.766 277.49C384.626 277.49 385.36 277.583 385.966 277.77C386.58 277.95 387.08 278.203 387.466 278.53C387.86 278.85 388.146 279.237 388.326 279.69C388.513 280.137 388.606 280.623 388.606 281.15C388.606 281.697 388.53 282.213 388.376 282.7C388.23 283.187 388.013 283.63 387.726 284.03C387.44 284.43 387.09 284.783 386.676 285.09C386.27 285.397 385.803 285.643 385.276 285.83C385.45 285.93 385.606 286.053 385.746 286.2C385.893 286.347 386.02 286.523 386.126 286.73L388.496 292H385.886C385.386 292 385.06 291.813 384.906 291.44L383.036 286.92C382.956 286.747 382.856 286.62 382.736 286.54C382.616 286.46 382.436 286.42 382.196 286.42H381.316L380.626 292H377.746L379.516 277.49H383.766ZM394.805 294.46C394.732 294.4 394.679 294.34 394.645 294.28C394.619 294.22 394.605 294.15 394.605 294.07C394.605 293.97 394.662 293.853 394.775 293.72C394.889 293.587 395.019 293.433 395.165 293.26C395.319 293.093 395.465 292.903 395.605 292.69C395.752 292.477 395.855 292.233 395.915 291.96C395.695 291.953 395.495 291.907 395.315 291.82C395.135 291.733 394.979 291.62 394.845 291.48C394.719 291.34 394.619 291.177 394.545 290.99C394.479 290.797 394.445 290.59 394.445 290.37C394.445 290.17 394.482 289.983 394.555 289.81C394.635 289.637 394.742 289.487 394.875 289.36C395.009 289.233 395.169 289.133 395.355 289.06C395.549 288.987 395.762 288.95 395.995 288.95C396.269 288.95 396.505 289 396.705 289.1C396.912 289.193 397.082 289.32 397.215 289.48C397.355 289.64 397.459 289.83 397.525 290.05C397.592 290.263 397.625 290.49 397.625 290.73C397.625 291.057 397.575 291.403 397.475 291.77C397.375 292.13 397.225 292.493 397.025 292.86C396.825 293.227 396.579 293.583 396.285 293.93C395.999 294.283 395.665 294.603 395.285 294.89L394.805 294.46ZM427.248 277.49L425.458 292H422.538L423.308 285.72H417.598L416.828 292H413.918L415.708 277.49H418.618L417.848 283.7H423.558L424.328 277.49H427.248ZM439.122 289.71C439.562 289.71 439.966 289.627 440.332 289.46C440.699 289.293 441.019 289.057 441.292 288.75C441.566 288.437 441.792 288.063 441.972 287.63C442.152 287.19 442.272 286.703 442.332 286.17L443.402 277.49H446.292L445.232 286.17C445.126 287.037 444.896 287.837 444.542 288.57C444.189 289.303 443.736 289.937 443.182 290.47C442.629 290.997 441.982 291.41 441.242 291.71C440.509 292.01 439.702 292.16 438.822 292.16C437.942 292.16 437.169 292.01 436.502 291.71C435.842 291.41 435.299 290.997 434.872 290.47C434.452 289.937 434.156 289.303 433.982 288.57C433.816 287.837 433.786 287.037 433.892 286.17L434.932 277.49H437.832L436.772 286.17C436.706 286.703 436.709 287.19 436.782 287.63C436.856 288.063 436.992 288.437 437.192 288.75C437.392 289.057 437.652 289.293 437.972 289.46C438.299 289.627 438.682 289.71 439.122 289.71ZM457.389 284.39C457.889 284.39 458.316 284.317 458.669 284.17C459.022 284.023 459.312 283.823 459.539 283.57C459.766 283.317 459.932 283.02 460.039 282.68C460.146 282.34 460.199 281.98 460.199 281.6C460.199 281.007 460.016 280.54 459.649 280.2C459.289 279.86 458.729 279.69 457.969 279.69H456.619L456.039 284.39H457.389ZM458.239 277.49C459.099 277.49 459.832 277.583 460.439 277.77C461.052 277.95 461.552 278.203 461.939 278.53C462.332 278.85 462.619 279.237 462.799 279.69C462.986 280.137 463.079 280.623 463.079 281.15C463.079 281.697 463.002 282.213 462.849 282.7C462.702 283.187 462.486 283.63 462.199 284.03C461.912 284.43 461.562 284.783 461.149 285.09C460.742 285.397 460.276 285.643 459.749 285.83C459.922 285.93 460.079 286.053 460.219 286.2C460.366 286.347 460.492 286.523 460.599 286.73L462.969 292H460.359C459.859 292 459.532 291.813 459.379 291.44L457.509 286.92C457.429 286.747 457.329 286.62 457.209 286.54C457.089 286.46 456.909 286.42 456.669 286.42H455.789L455.099 292H452.219L453.989 277.49H458.239ZM474.518 284.39C475.018 284.39 475.445 284.317 475.798 284.17C476.151 284.023 476.441 283.823 476.668 283.57C476.895 283.317 477.061 283.02 477.168 282.68C477.275 282.34 477.328 281.98 477.328 281.6C477.328 281.007 477.145 280.54 476.778 280.2C476.418 279.86 475.858 279.69 475.098 279.69H473.748L473.168 284.39H474.518ZM475.368 277.49C476.228 277.49 476.961 277.583 477.568 277.77C478.181 277.95 478.681 278.203 479.068 278.53C479.461 278.85 479.748 279.237 479.928 279.69C480.115 280.137 480.208 280.623 480.208 281.15C480.208 281.697 480.131 282.213 479.978 282.7C479.831 283.187 479.615 283.63 479.328 284.03C479.041 284.43 478.691 284.783 478.278 285.09C477.871 285.397 477.405 285.643 476.878 285.83C477.051 285.93 477.208 286.053 477.348 286.2C477.495 286.347 477.621 286.523 477.728 286.73L480.098 292H477.488C476.988 292 476.661 291.813 476.508 291.44L474.638 286.92C474.558 286.747 474.458 286.62 474.338 286.54C474.218 286.46 474.038 286.42 473.798 286.42H472.918L472.228 292H469.348L471.118 277.49H475.368ZM492.605 286.37L491.905 292H489.005L489.705 286.42L485.945 277.49H488.515C488.768 277.49 488.965 277.55 489.105 277.67C489.245 277.783 489.348 277.937 489.415 278.13L491.065 282.86C491.158 283.127 491.238 283.383 491.305 283.63C491.372 283.877 491.428 284.117 491.475 284.35C491.588 284.117 491.712 283.88 491.845 283.64C491.985 283.393 492.135 283.133 492.295 282.86L495.125 278.13C495.225 277.977 495.358 277.833 495.525 277.7C495.698 277.56 495.905 277.49 496.145 277.49H498.545L492.605 286.37ZM507.308 277.49L506.608 283.22C506.535 283.833 506.428 284.437 506.288 285.03C506.148 285.617 505.988 286.233 505.808 286.88H504.008C503.982 286.233 503.975 285.617 503.988 285.03C504.002 284.437 504.048 283.833 504.128 283.22L504.828 277.49H507.308ZM502.978 290.55C502.978 290.33 503.018 290.123 503.098 289.93C503.185 289.73 503.298 289.56 503.438 289.42C503.585 289.273 503.755 289.16 503.948 289.08C504.148 288.993 504.365 288.95 504.598 288.95C504.825 288.95 505.038 288.993 505.238 289.08C505.438 289.16 505.612 289.273 505.758 289.42C505.905 289.56 506.018 289.73 506.098 289.93C506.185 290.123 506.228 290.33 506.228 290.55C506.228 290.777 506.185 290.987 506.098 291.18C506.018 291.373 505.905 291.543 505.758 291.69C505.612 291.83 505.438 291.94 505.238 292.02C505.038 292.1 504.825 292.14 504.598 292.14C504.365 292.14 504.148 292.1 503.948 292.02C503.755 291.94 503.585 291.83 503.438 291.69C503.298 291.543 503.185 291.373 503.098 291.18C503.018 290.987 502.978 290.777 502.978 290.55Z" fill="#212121"/>
<rect x="250" y="315" width="147" height="40" rx="4" fill="#1697B7"/>
<path d="M285.958 332.664C285.874 332.571 285.697 332.449 285.426 332.3C285.155 332.141 284.829 332.001 284.446 331.88C284.073 331.749 283.685 331.684 283.284 331.684C282.229 331.684 281.702 332.057 281.702 332.804C281.702 333.075 281.786 333.289 281.954 333.448C282.122 333.607 282.374 333.742 282.71 333.854C283.046 333.966 283.466 334.087 283.97 334.218C284.623 334.386 285.188 334.582 285.664 334.806C286.149 335.03 286.518 335.329 286.77 335.702C287.031 336.066 287.162 336.551 287.162 337.158C287.162 337.867 286.989 338.441 286.644 338.88C286.308 339.309 285.86 339.622 285.3 339.818C284.74 340.014 284.133 340.112 283.48 340.112C282.733 340.112 281.991 340 281.254 339.776C280.526 339.543 279.877 339.225 279.308 338.824L280.162 337.158C280.246 337.242 280.395 337.354 280.61 337.494C280.825 337.625 281.086 337.76 281.394 337.9C281.702 338.031 282.038 338.143 282.402 338.236C282.766 338.329 283.135 338.376 283.508 338.376C284.572 338.376 285.104 338.035 285.104 337.354C285.104 337.065 284.997 336.831 284.782 336.654C284.567 336.477 284.264 336.327 283.872 336.206C283.489 336.085 283.041 335.949 282.528 335.8C281.893 335.623 281.366 335.427 280.946 335.212C280.535 334.988 280.227 334.713 280.022 334.386C279.817 334.05 279.714 333.625 279.714 333.112C279.714 332.431 279.873 331.861 280.19 331.404C280.517 330.937 280.955 330.587 281.506 330.354C282.057 330.111 282.668 329.99 283.34 329.99C284.031 329.99 284.675 330.102 285.272 330.326C285.869 330.55 286.383 330.807 286.812 331.096L285.958 332.664ZM296.224 338.306V340H289.322V330.06H296.098V331.754H291.254V334.148H295.44V335.716H291.254V338.306H296.224ZM305.332 338.306V340H298.43V330.06H305.206V331.754H300.362V334.148H304.548V335.716H300.362V338.306H305.332ZM315.844 340.07C315.116 340.07 314.453 339.93 313.856 339.65C313.268 339.37 312.759 338.992 312.33 338.516C311.91 338.031 311.583 337.489 311.35 336.892C311.116 336.285 311 335.665 311 335.03C311 334.367 311.121 333.737 311.364 333.14C311.606 332.533 311.947 331.997 312.386 331.53C312.824 331.054 313.338 330.681 313.926 330.41C314.523 330.13 315.176 329.99 315.886 329.99C316.604 329.99 317.258 330.135 317.846 330.424C318.443 330.713 318.952 331.101 319.372 331.586C319.801 332.071 320.128 332.617 320.352 333.224C320.585 333.821 320.702 334.433 320.702 335.058C320.702 335.711 320.58 336.341 320.338 336.948C320.095 337.545 319.754 338.082 319.316 338.558C318.886 339.025 318.373 339.393 317.776 339.664C317.188 339.935 316.544 340.07 315.844 340.07ZM312.96 335.03C312.96 335.609 313.072 336.15 313.296 336.654C313.529 337.158 313.86 337.569 314.29 337.886C314.728 338.203 315.251 338.362 315.858 338.362C316.483 338.362 317.01 338.199 317.44 337.872C317.869 337.545 318.196 337.125 318.42 336.612C318.644 336.099 318.756 335.571 318.756 335.03C318.756 334.451 318.639 333.91 318.406 333.406C318.172 332.902 317.836 332.496 317.398 332.188C316.968 331.871 316.455 331.712 315.858 331.712C315.232 331.712 314.705 331.875 314.276 332.202C313.846 332.529 313.52 332.949 313.296 333.462C313.072 333.966 312.96 334.489 312.96 335.03ZM322.884 340V330.06H329.562V331.754H324.816V334.316H328.764V335.884H324.816V340H322.884ZM331.623 340V330.06H338.301V331.754H333.555V334.316H337.503V335.884H333.555V340H331.623ZM347.264 338.306V340H340.362V330.06H347.138V331.754H342.294V334.148H346.48V335.716H342.294V338.306H347.264ZM349.47 340V330.06H353.866C354.323 330.06 354.743 330.153 355.126 330.34C355.518 330.527 355.854 330.779 356.134 331.096C356.423 331.413 356.643 331.768 356.792 332.16C356.951 332.552 357.03 332.953 357.03 333.364C357.03 333.999 356.867 334.582 356.54 335.114C356.223 335.646 355.789 336.029 355.238 336.262L357.506 340H355.378L353.334 336.668H351.402V340H349.47ZM351.402 334.974H353.824C354.188 334.974 354.487 334.82 354.72 334.512C354.963 334.195 355.084 333.812 355.084 333.364C355.084 333.056 355.019 332.781 354.888 332.538C354.757 332.295 354.589 332.104 354.384 331.964C354.188 331.824 353.973 331.754 353.74 331.754H351.402V334.974ZM365.403 332.664C365.319 332.571 365.141 332.449 364.871 332.3C364.6 332.141 364.273 332.001 363.891 331.88C363.517 331.749 363.13 331.684 362.729 331.684C361.674 331.684 361.147 332.057 361.147 332.804C361.147 333.075 361.231 333.289 361.399 333.448C361.567 333.607 361.819 333.742 362.155 333.854C362.491 333.966 362.911 334.087 363.415 334.218C364.068 334.386 364.633 334.582 365.109 334.806C365.594 335.03 365.963 335.329 366.215 335.702C366.476 336.066 366.607 336.551 366.607 337.158C366.607 337.867 366.434 338.441 366.089 338.88C365.753 339.309 365.305 339.622 364.745 339.818C364.185 340.014 363.578 340.112 362.925 340.112C362.178 340.112 361.436 340 360.699 339.776C359.971 339.543 359.322 339.225 358.753 338.824L359.607 337.158C359.691 337.242 359.84 337.354 360.055 337.494C360.269 337.625 360.531 337.76 360.839 337.9C361.147 338.031 361.483 338.143 361.847 338.236C362.211 338.329 362.579 338.376 362.953 338.376C364.017 338.376 364.549 338.035 364.549 337.354C364.549 337.065 364.441 336.831 364.227 336.654C364.012 336.477 363.709 336.327 363.317 336.206C362.934 336.085 362.486 335.949 361.973 335.8C361.338 335.623 360.811 335.427 360.391 335.212C359.98 334.988 359.672 334.713 359.467 334.386C359.261 334.05 359.159 333.625 359.159 333.112C359.159 332.431 359.317 331.861 359.635 331.404C359.961 330.937 360.4 330.587 360.951 330.354C361.501 330.111 362.113 329.99 362.785 329.99C363.475 329.99 364.119 330.102 364.717 330.326C365.314 330.55 365.827 330.807 366.257 331.096L365.403 332.664Z" fill="white"/>
</svg>
