<svg width="200" height="200" viewBox="0 0 200 200" fill="none" xmlns="http://www.w3.org/2000/svg">
<path d="M100 200C152.855 200 195.703 157.152 195.703 104.297C195.703 51.4415 152.855 8.59375 100 8.59375C47.1446 8.59375 4.29688 51.4415 4.29688 104.297C4.29688 157.152 47.1446 200 100 200Z" fill="#A53535"/>
<path d="M31.3985 113.962C38.8421 113.962 44.8762 107.928 44.8762 100.484C44.8762 93.0408 38.8421 87.0066 31.3985 87.0066C23.955 87.0066 17.9208 93.0408 17.9208 100.484C17.9208 107.928 23.955 113.962 31.3985 113.962Z" fill="#FFD00D"/>
<path d="M25.6732 100.485C25.6732 94.3891 29.7216 89.2406 35.2755 87.5758C34.0478 87.2078 32.7474 87.0074 31.3997 87.0074C23.9564 87.0074 17.922 93.0418 17.922 100.485C17.922 107.929 23.9564 113.963 31.3997 113.963C32.7474 113.963 34.0478 113.763 35.2755 113.395C29.7216 111.729 25.6732 106.581 25.6732 100.485Z" fill="#FFAF10"/>
<path d="M159.334 72.3469C142.304 72.3469 127.999 60.4516 124.291 44.5332H41.5129C39.3645 44.5332 37.6067 46.291 37.6067 48.4394V94.1332C37.6067 96.2816 39.3645 98.0395 41.5129 98.0395H158.487C160.635 98.0395 162.393 96.2816 162.393 94.1332V72.2156C161.385 72.3008 160.364 72.3469 159.334 72.3469Z" fill="#91E0E8"/>
<path d="M45.3579 94.1332V48.4394C45.3579 46.291 47.1157 44.5332 49.2641 44.5332H41.5129C39.3645 44.5332 37.6067 46.291 37.6067 48.4394V94.1332C37.6067 96.2816 39.3645 98.0395 41.5129 98.0395H49.2641C47.1157 98.0395 45.3579 96.2816 45.3579 94.1332Z" fill="#5DC1D8"/>
<path d="M91.9918 179.248V199.664C94.6328 199.882 97.3028 200 100 200C113.536 200 126.413 197.184 138.086 192.114V179.248H91.9918Z" fill="#37C47A"/>
<path d="M99.743 179.251H91.9918V199.666C94.5489 199.878 97.1332 199.993 99.743 200V179.251Z" fill="#02AF8E"/>
<path d="M138.886 160.171V111.12C138.886 107.897 136.249 105.261 133.026 105.261H130.683C128.366 105.261 126.359 106.627 125.409 108.59C124.46 106.627 122.452 105.261 120.136 105.261H117.793C115.476 105.261 113.468 106.627 112.519 108.59C111.57 106.627 109.562 105.261 107.245 105.261H104.902C102.988 105.261 101.284 106.195 100.214 107.627V84.8176C100.214 81.5949 97.577 78.9582 94.3543 78.9582H92.0114C88.7887 78.9582 86.152 81.5949 86.152 84.8176V132.849L79.634 126.331C77.3551 124.052 73.6266 124.052 71.3477 126.331L68.9098 128.769C66.6313 131.048 66.6313 134.777 68.9098 137.055L92.0258 160.171H138.886Z" fill="#FFE2B8"/>
<path d="M99.777 160.171L76.661 137.055C74.3824 134.777 74.3824 131.048 76.661 128.769L79.0989 126.331C79.1848 126.245 79.2766 126.169 79.3668 126.089C77.0727 124.062 73.541 124.138 71.3481 126.331L68.9102 128.769C66.6317 131.048 66.6317 134.777 68.9102 137.055L92.0262 160.171H99.777Z" fill="#FFC987"/>
<path d="M142.773 177.686C142.773 178.76 141.894 179.639 140.82 179.639H89.2574C88.1832 179.639 87.3043 178.76 87.3043 177.686V161.734C87.3043 160.66 88.1832 159.781 89.2574 159.781H140.82C141.894 159.781 142.773 160.66 142.773 161.734V177.686Z" fill="#0F9390"/>
<path d="M95.0555 177.686V161.734C95.0555 160.66 95.9344 159.781 97.0086 159.781H89.2574C88.1832 159.781 87.3043 160.66 87.3043 161.734V177.686C87.3043 178.76 88.1832 179.639 89.2574 179.639H97.0086C95.9344 179.639 95.0555 178.76 95.0555 177.686Z" fill="#0F9390"/>
<path d="M132.617 174.008C134.99 174.008 136.914 172.084 136.914 169.711C136.914 167.338 134.99 165.414 132.617 165.414C130.244 165.414 128.32 167.338 128.32 169.711C128.32 172.084 130.244 174.008 132.617 174.008Z" fill="white"/>
<path d="M92.7731 73.6328C91.1547 73.6328 89.8434 72.3211 89.8434 70.7031V64.8438C89.8434 63.2258 91.1547 61.9141 92.7731 61.9141C94.3914 61.9141 95.7028 63.2258 95.7028 64.8438V70.7031C95.7028 72.3211 94.3914 73.6328 92.7731 73.6328Z" fill="white"/>
<path d="M102.441 77.6371C101.691 77.6371 100.941 77.3512 100.369 76.7789C99.2247 75.6348 99.2247 73.7797 100.369 72.6359L104.512 68.4926C105.657 67.3484 107.511 67.3484 108.656 68.4926C109.8 69.6367 109.8 71.4918 108.656 72.6359L104.513 76.7789C103.94 77.3512 103.19 77.6371 102.441 77.6371Z" fill="white"/>
<path d="M112.304 87.3047H106.445C104.827 87.3047 103.516 85.993 103.516 84.375C103.516 82.757 104.827 81.4453 106.445 81.4453H112.304C113.923 81.4453 115.234 82.757 115.234 84.375C115.234 85.993 113.923 87.3047 112.304 87.3047Z" fill="white"/>
<path d="M79.1004 87.3047H73.2418C71.6235 87.3047 70.3121 85.993 70.3121 84.375C70.3121 82.757 71.6235 81.4453 73.2418 81.4453H79.1004C80.7188 81.4453 82.0301 82.757 82.0301 84.375C82.0301 85.993 80.7188 87.3047 79.1004 87.3047Z" fill="white"/>
<path d="M83.1053 77.6367C82.3557 77.6367 81.6057 77.3508 81.0334 76.7785L76.8908 72.6359C75.7467 71.4918 75.7467 69.6367 76.8908 68.4926C78.0354 67.3484 79.89 67.3484 81.0342 68.4926L85.1768 72.6352C86.3209 73.7793 86.3209 75.6344 85.1768 76.7781C84.6049 77.3508 83.8549 77.6367 83.1053 77.6367Z" fill="white"/>
<path d="M159.336 72.7344C179.421 72.7344 195.703 56.4522 195.703 36.3672C195.703 16.2821 179.421 0 159.336 0C139.251 0 122.969 16.2821 122.969 36.3672C122.969 56.4522 139.251 72.7344 159.336 72.7344Z" fill="#EF9614"/>
<path d="M159.336 62.2148C173.611 62.2148 185.184 50.6425 185.184 36.3672C185.184 22.0919 173.611 10.5195 159.336 10.5195C145.061 10.5195 133.488 22.0919 133.488 36.3672C133.488 50.6425 145.061 62.2148 159.336 62.2148Z" fill="#FFD00D"/>
<path d="M141.238 36.3688C141.238 23.4113 150.773 12.6816 163.209 10.8117C161.945 10.6215 160.651 10.5215 159.334 10.5215C145.059 10.5215 133.487 22.0938 133.487 36.3688C133.487 50.6438 145.059 62.216 159.334 62.216C160.651 62.216 161.945 62.116 163.209 61.9258C150.773 60.0559 141.238 49.3266 141.238 36.3688Z" fill="#FFAF10"/>
<path d="M164.412 33.5691H155.233V29.5328H166.366C167.984 29.5328 169.295 28.2211 169.295 26.6031C169.295 24.9852 167.984 23.6734 166.366 23.6734H162.264V21.1344C162.264 19.5164 160.953 18.2047 159.334 18.2047C157.716 18.2047 156.405 19.5164 156.405 21.1344V23.6734H154.256C151.564 23.6734 149.373 25.8637 149.373 28.5562V34.5457C149.373 37.2383 151.564 39.4285 154.256 39.4285H163.436V43.4652H152.303C150.685 43.4652 149.373 44.777 149.373 46.3949C149.373 48.0129 150.685 49.3246 152.303 49.3246H156.405V51.6031C156.405 53.2211 157.716 54.5328 159.334 54.5328C160.953 54.5328 162.264 53.2211 162.264 51.6031V49.3246H164.412C167.105 49.3246 169.295 47.1344 169.295 44.4418V38.452C169.295 35.7594 167.105 33.5691 164.412 33.5691Z" fill="#DB722C"/>
<path d="M35.9766 196.539C53.4728 196.539 67.6562 182.356 67.6562 164.859C67.6562 147.363 53.4728 133.18 35.9766 133.18C18.4804 133.18 4.29688 147.363 4.29688 164.859C4.29688 182.356 18.4804 196.539 35.9766 196.539Z" fill="#EF9614"/>
<path d="M35.9766 186.204C47.7646 186.204 57.3207 176.647 57.3207 164.859C57.3207 153.071 47.7646 143.515 35.9766 143.515C24.1885 143.515 14.6324 153.071 14.6324 164.859C14.6324 176.647 24.1885 186.204 35.9766 186.204Z" fill="#FFD00D"/>
<path d="M22.3856 164.859C22.3856 154.395 29.9172 145.696 39.8539 143.872C38.5965 143.641 37.3028 143.514 35.9785 143.514C24.1903 143.514 14.6344 153.071 14.6344 164.859C14.6344 176.647 24.1903 186.203 35.9785 186.203C37.3028 186.203 38.5965 186.076 39.8539 185.845C29.9172 184.021 22.3856 175.322 22.3856 164.859Z" fill="#FFAF10"/>
<path d="M40.4021 162.042H32.7833V159.281H42.1036C43.7216 159.281 45.0333 157.97 45.0333 156.352C45.0333 154.734 43.7216 153.422 42.1036 153.422H38.9079V151.587C38.9079 149.97 37.5966 148.658 35.9782 148.658C34.3599 148.658 33.0486 149.97 33.0486 151.587V153.422H31.5548C29.0013 153.422 26.924 155.499 26.924 158.053V163.27C26.924 165.824 29.0013 167.901 31.5548 167.901H39.174V170.662H29.8536C28.2353 170.662 26.924 171.974 26.924 173.592C26.924 175.21 28.2353 176.521 29.8536 176.521H33.049V178.129C33.049 179.747 34.3603 181.059 35.9786 181.059C37.597 181.059 38.9083 179.747 38.9083 178.129V176.521H40.4021C42.956 176.521 45.0333 174.444 45.0333 171.891V166.673C45.0333 164.12 42.956 162.042 40.4021 162.042Z" fill="#DB722C"/>
<path d="M165.777 140.919C173.221 140.919 179.255 134.885 179.255 127.441C179.255 119.998 173.221 113.964 165.777 113.964C158.334 113.964 152.299 119.998 152.299 127.441C152.299 134.885 158.334 140.919 165.777 140.919Z" fill="#FFD00D"/>
<path d="M160.05 127.44C160.05 121.344 164.099 116.196 169.652 114.531C168.425 114.163 167.124 113.962 165.777 113.962C158.333 113.962 152.299 119.997 152.299 127.44C152.299 134.884 158.333 140.918 165.777 140.918C167.124 140.918 168.425 140.718 169.652 140.35C164.099 138.684 160.05 133.536 160.05 127.44Z" fill="#FFAF10"/>
</svg>
