<svg width="100" height="100" viewBox="0 0 100 100" fill="none" xmlns="http://www.w3.org/2000/svg">
<path d="M49.9998 96.6406C75.7587 96.6406 96.6404 75.7589 96.6404 50C96.6404 24.2411 75.7587 3.35938 49.9998 3.35938C24.2408 3.35938 3.35913 24.2411 3.35913 50C3.35913 75.7589 24.2408 96.6406 49.9998 96.6406Z" fill="#382B73"/>
<path d="M49.9996 90.3512C72.2849 90.3512 90.3508 72.2853 90.3508 50C90.3508 27.7147 72.2849 9.64883 49.9996 9.64883C27.7143 9.64883 9.64844 27.7147 9.64844 50C9.64844 72.2853 27.7143 90.3512 49.9996 90.3512Z" fill="#473080"/>
<path d="M77.138 42.1906H54.0841V34.6184V32.0668C54.0841 31.0711 53.2767 30.2637 52.281 30.2637H24.424C23.4283 30.2637 22.6208 31.0711 22.6208 32.0668V34.6184V53.3039V55.8555C22.6208 56.8512 23.4283 57.6586 24.424 57.6586H27.8798V61.3711V64.4172C27.8798 65.4883 29.1748 66.0246 29.9318 65.2672L37.5408 57.6586H47.4775V65.2309V67.7824C47.4775 68.7781 48.2849 69.5856 49.2806 69.5856H64.0209L71.6298 77.1945C72.3873 77.952 73.6818 77.4156 73.6818 76.3446V73.2981V69.5856H77.1377C78.1334 69.5856 78.9408 68.7781 78.9408 67.7824V65.2309V46.5453V43.9938C78.9412 42.9981 78.1337 42.1906 77.138 42.1906Z" fill="#382B73"/>
<path d="M51.7404 30.0808H24.9646C23.6701 30.0808 22.6208 31.1301 22.6208 32.4246V52.5805C22.6208 53.875 23.6701 54.9242 24.9646 54.9242H27.8798V61.6828C27.8798 62.7539 29.1748 63.2902 29.9318 62.5328L37.5408 54.9242H51.7404C53.0349 54.9242 54.0841 53.875 54.0841 52.5805V32.4246C54.0841 31.1301 53.0349 30.0808 51.7404 30.0808Z" fill="#136DA0"/>
<path d="M51.7404 27.5293H24.9646C23.6701 27.5293 22.6208 28.5785 22.6208 29.873V50.0289C22.6208 51.3235 23.6701 52.3727 24.9646 52.3727H27.8798V58.6367C27.8798 59.7078 29.1748 60.2442 29.9318 59.4867L37.0458 52.3727H51.7404C53.0349 52.3727 54.0841 51.3235 54.0841 50.0289V29.873C54.0841 28.5785 53.0349 27.5293 51.7404 27.5293Z" fill="#1CAEE4"/>
<path d="M76.5973 42.0078H49.8215C48.527 42.0078 47.4778 43.0571 47.4778 44.3516V64.5075C47.4778 65.802 48.527 66.8512 49.8215 66.8512H64.0211L71.6301 74.4602C72.3876 75.2176 73.6821 74.6813 73.6821 73.6102V66.8516H76.5973C77.8919 66.8516 78.9411 65.8024 78.9411 64.5079V44.3516C78.9411 43.0571 77.8919 42.0078 76.5973 42.0078Z" fill="#A72973"/>
<path d="M76.5973 39.4563H49.8215C48.527 39.4563 47.4778 40.5055 47.4778 41.8V61.9559C47.4778 63.2504 48.527 64.2996 49.8215 64.2996H64.5161L71.6301 71.4137C72.3876 72.1711 73.6821 71.6348 73.6821 70.5637V64.3H76.5973C77.8919 64.3 78.9411 63.2508 78.9411 61.9563V41.8004C78.9411 40.5059 77.8919 39.4563 76.5973 39.4563Z" fill="#EF5A9D"/>
<path d="M69.3169 57.6437L64.7032 45.4519C64.5978 45.1734 64.3321 44.9898 64.0349 44.9898H63.0552C62.7579 44.9898 62.4919 45.1734 62.3868 45.4519L57.7732 57.6437C57.69 57.8629 57.72 58.109 57.8532 58.3023C57.9872 58.4957 58.2071 58.6109 58.4415 58.6109H59.5216C59.8216 58.6109 60.0888 58.4238 60.1923 58.1426L61.2767 55.1859H65.8146L66.9067 58.1438C67.0107 58.4242 67.2778 58.6105 67.5774 58.6105H68.6493C68.8837 58.6105 69.1036 58.4953 69.2376 58.302C69.37 58.109 69.4001 57.8625 69.3169 57.6437ZM62.12 52.8859L63.5407 49.0277L64.9614 52.8859H62.12Z" fill="white"/>
<path d="M44.23 43.7383L43.0031 42.7043C43.3367 41.8453 43.5156 40.875 43.5156 39.8004V38.3324C43.4976 37.1461 43.2687 36.0812 42.8359 35.166C42.3878 34.2191 41.7398 33.473 40.9085 32.95C39.2476 31.9019 36.8382 31.8984 35.1726 32.9644C34.3386 33.4984 33.6878 34.2652 33.2378 35.2449C32.8031 36.1918 32.5828 37.2851 32.5828 38.4945V39.7504C32.5828 41.6484 33.0832 43.1933 34.0703 44.3402C35.0843 45.5187 36.4273 46.1168 38.0617 46.1168C39.1382 46.1168 40.107 45.848 40.9402 45.3183C41.0769 45.2312 41.2007 45.1285 41.3273 45.0293L42.3882 45.9234C42.657 46.1496 42.9835 46.2598 43.3085 46.2598C43.7152 46.2598 44.1195 46.0867 44.4019 45.7519C44.9101 45.1484 44.8335 44.2469 44.23 43.7383ZM39.723 39.9402C39.1179 39.4308 38.2179 39.509 37.7093 40.1117C37.2007 40.7152 37.2773 41.6168 37.8808 42.1254L39.4597 43.4558C39.0636 43.6722 38.6058 43.7918 38.0617 43.7918C37.1335 43.7918 36.4242 43.4652 35.8921 42.7937C35.3277 42.0812 35.0417 41.0746 35.0417 39.8004V38.5277C35.0417 37.2062 35.3277 36.1805 35.8921 35.4805C36.4265 34.8168 37.1308 34.4945 38.0449 34.4945C38.98 34.4945 39.6902 34.8148 40.2164 35.4734C40.7738 36.1711 41.0566 37.1824 41.0566 38.4773V39.7668C41.0566 40.2074 41.014 40.6019 40.9523 40.9758L39.723 39.9402Z" fill="white"/>
</svg>
