<svg width="225" height="208" viewBox="0 0 225 208" fill="none" xmlns="http://www.w3.org/2000/svg">
<path d="M128.703 207.406C181.559 207.406 224.406 164.559 224.406 111.703C224.406 58.8477 181.559 16 128.703 16C75.8477 16 33 58.8477 33 111.703C33 164.559 75.8477 207.406 128.703 207.406Z" fill="#5DC1D8"/>
<path d="M142.188 9.375H57.8125C53.4978 9.375 50 12.8728 50 17.1875V182.812C50 187.127 53.4978 190.625 57.8125 190.625H142.188C146.502 190.625 150 187.127 150 182.812V17.1875C150 12.8728 146.502 9.375 142.188 9.375Z" fill="#25B1FA"/>
<path d="M190.625 50H9.375V155.469C9.375 156.505 9.78655 157.498 10.5191 158.231C11.2517 158.963 12.2452 159.375 13.2812 159.375H186.719C187.755 159.375 188.748 158.963 189.481 158.231C190.213 157.498 190.625 156.505 190.625 155.469V50Z" fill="#EBF7FF"/>
<path d="M13.2812 28.125H186.719C187.755 28.125 188.748 28.5366 189.481 29.2691C190.213 30.0017 190.625 30.9952 190.625 32.0312V53.125H9.375V32.0312C9.375 30.9952 9.78655 30.0017 10.5191 29.2691C11.2517 28.5366 12.2452 28.125 13.2812 28.125Z" fill="#80DAFF"/>
<path d="M164.062 128.125H123.438C119.123 128.125 115.625 131.623 115.625 135.938V139.062C115.625 143.377 119.123 146.875 123.438 146.875H164.062C168.377 146.875 171.875 143.377 171.875 139.062V135.938C171.875 131.623 168.377 128.125 164.062 128.125Z" fill="#80DAFF"/>
<path d="M21.875 146.875V65.625H90.625V146.875" fill="#80DAFF"/>
<path d="M21.875 146.875V136.246C21.875 133.861 22.603 131.532 23.9617 129.571C25.3205 127.61 27.2453 126.111 29.4789 125.273L46.875 118.75H65.625L83.0211 125.273C85.2547 126.111 87.1795 127.61 88.5383 129.571C89.897 131.532 90.625 133.861 90.625 136.246V146.875H21.875Z" fill="#FAFDFF"/>
<path d="M60.9375 78.125H51.5625C49.4905 78.125 47.5034 78.9481 46.0382 80.4132C44.5731 81.8784 43.75 83.8655 43.75 85.9375V101.562C43.75 105.877 50 109.375 50 109.375L46.875 118.75L56.25 131.25L65.625 118.75L62.5 109.375C62.5 109.375 68.75 105.877 68.75 101.562V85.9375C68.75 83.8655 67.9269 81.8784 66.4618 80.4132C64.9966 78.9481 63.0095 78.125 60.9375 78.125Z" fill="#FFD4CF"/>
<path d="M121.875 75.2073C121.875 70.0296 117.678 65.8323 112.5 65.8323C107.322 65.8323 103.125 70.0296 103.125 75.2073C103.125 80.3849 107.322 84.5823 112.5 84.5823C117.678 84.5823 121.875 80.3849 121.875 75.2073Z" fill="#80DAFF"/>
<path d="M121.875 106.457C121.875 101.28 117.678 97.0823 112.5 97.0823C107.322 97.0823 103.125 101.28 103.125 106.457C103.125 111.635 107.322 115.832 112.5 115.832C117.678 115.832 121.875 111.635 121.875 106.457Z" fill="#80DAFF"/>
<path d="M50 171.875H150V178.125H50V171.875Z" fill="#22A2E6"/>
<path d="M168.75 65.8323H181.25V72.0823H168.75V65.8323Z" fill="#80DAFF"/>
<path d="M131.25 65.625H162.5V71.875H131.25V65.625Z" fill="#80DAFF"/>
<path d="M156.25 78.125H181.25V84.375H156.25V78.125Z" fill="#80DAFF"/>
<path d="M131.25 78.125H150V84.375H131.25V78.125Z" fill="#80DAFF"/>
<path d="M168.75 96.875H181.25V103.125H168.75V96.875Z" fill="#80DAFF"/>
<path d="M131.25 96.875H162.5V103.125H131.25V96.875Z" fill="#80DAFF"/>
<path d="M156.25 109.375H181.25V115.625H156.25V109.375Z" fill="#80DAFF"/>
<path d="M131.25 109.375H150V115.625H131.25V109.375Z" fill="#80DAFF"/>
<path d="M18.75 37.5H25V43.75H18.75V37.5Z" fill="#FAFDFF"/>
<path d="M31.25 37.5H37.5V43.75H31.25V37.5Z" fill="#FAFDFF"/>
<path d="M43.75 37.5H50V43.75H43.75V37.5Z" fill="#FAFDFF"/>
<path d="M175 37.5H181.25V43.75H175V37.5Z" fill="#FAFDFF"/>
<path d="M50 159.375H150V162.5H50V159.375Z" fill="#19ADFA"/>
</svg>
