<svg width="719" height="1090" viewBox="0 0 719 1090" fill="none" xmlns="http://www.w3.org/2000/svg">
<path d="M668.5 29.5C668.5 29.5 123.5 90.5 16.9351 306.5C-121.187 586.465 733.91 400.029 706.435 711C680.891 1000.12 48.9351 1057.5 48.9351 1057.5" stroke="#F3AD78" stroke-width="2" stroke-dasharray="7 7"/>
<circle cx="534" cy="15" r="15" fill="#E8804C"/>
<path d="M537.189 18.859V20H531.694V18.859H533.794V12.545C533.794 12.321 533.801 12.0923 533.815 11.859L532.198 13.224C532.128 13.28 532.056 13.3173 531.981 13.336C531.911 13.35 531.843 13.35 531.778 13.336C531.717 13.322 531.661 13.301 531.61 13.273C531.563 13.2403 531.526 13.2053 531.498 13.168L531.029 12.51L534.067 9.899H535.292V18.859H537.189Z" fill="white"/>
<circle cx="31" cy="236" r="15" fill="#E8804C"/>
<path d="M33.888 239.579C34.0513 239.579 34.1797 239.628 34.273 239.726C34.3663 239.819 34.413 239.941 34.413 240.09V241H27.595V240.489C27.595 240.386 27.616 240.279 27.658 240.167C27.7 240.055 27.7677 239.952 27.861 239.859L30.997 236.716C31.263 236.45 31.4987 236.196 31.704 235.953C31.914 235.71 32.0913 235.468 32.236 235.225C32.3853 234.982 32.4973 234.737 32.572 234.49C32.6513 234.238 32.691 233.974 32.691 233.699C32.691 233.433 32.649 233.2 32.565 232.999C32.4857 232.794 32.3737 232.626 32.229 232.495C32.089 232.36 31.9187 232.259 31.718 232.194C31.522 232.124 31.305 232.089 31.067 232.089C30.8383 232.089 30.626 232.122 30.43 232.187C30.2387 232.252 30.066 232.343 29.912 232.46C29.7627 232.577 29.6367 232.717 29.534 232.88C29.436 233.039 29.3637 233.214 29.317 233.405C29.247 233.596 29.156 233.725 29.044 233.79C28.9367 233.855 28.778 233.869 28.568 233.832L27.777 233.692C27.847 233.216 27.9777 232.798 28.169 232.439C28.365 232.08 28.61 231.781 28.904 231.543C29.198 231.3 29.534 231.118 29.912 230.997C30.2947 230.871 30.7077 230.808 31.151 230.808C31.599 230.808 32.0097 230.876 32.383 231.011C32.761 231.142 33.0853 231.331 33.356 231.578C33.6313 231.821 33.846 232.117 34 232.467C34.154 232.817 34.231 233.211 34.231 233.65C34.231 234.023 34.175 234.369 34.063 234.686C33.9557 235.003 33.8087 235.307 33.622 235.596C33.4353 235.885 33.216 236.168 32.964 236.443C32.7167 236.714 32.4553 236.989 32.18 237.269L29.744 239.761C29.9447 239.705 30.1453 239.661 30.346 239.628C30.5513 239.595 30.745 239.579 30.927 239.579H33.888Z" fill="white"/>
<circle cx="704" cy="598" r="15" fill="#E8804C"/>
<path d="M700.826 595.692C700.896 595.216 701.027 594.798 701.218 594.439C701.414 594.08 701.659 593.781 701.953 593.543C702.247 593.3 702.583 593.118 702.961 592.997C703.344 592.871 703.757 592.808 704.2 592.808C704.648 592.808 705.054 592.873 705.418 593.004C705.787 593.13 706.102 593.307 706.363 593.536C706.629 593.765 706.832 594.038 706.972 594.355C707.117 594.672 707.189 595.02 707.189 595.398C707.189 595.72 707.149 596.005 707.07 596.252C706.995 596.495 706.886 596.709 706.741 596.896C706.601 597.083 706.428 597.239 706.223 597.365C706.018 597.491 705.787 597.596 705.53 597.68C706.155 597.862 706.624 598.154 706.937 598.555C707.25 598.952 707.406 599.451 707.406 600.053C707.406 600.538 707.315 600.97 707.133 601.348C706.951 601.726 706.704 602.046 706.391 602.307C706.083 602.568 705.721 602.769 705.306 602.909C704.895 603.044 704.459 603.112 703.997 603.112C703.479 603.112 703.031 603.051 702.653 602.93C702.275 602.804 701.948 602.627 701.673 602.398C701.402 602.165 701.176 601.885 700.994 601.558C700.812 601.231 700.658 600.865 700.532 600.459L701.183 600.186C701.356 600.111 701.519 600.09 701.673 600.123C701.832 600.156 701.946 600.242 702.016 600.382C702.091 600.531 702.175 600.692 702.268 600.865C702.361 601.033 702.48 601.189 702.625 601.334C702.774 601.474 702.956 601.593 703.171 601.691C703.39 601.784 703.659 601.831 703.976 601.831C704.298 601.831 704.578 601.78 704.816 601.677C705.059 601.57 705.259 601.434 705.418 601.271C705.581 601.103 705.703 600.916 705.782 600.711C705.861 600.506 705.901 600.303 705.901 600.102C705.901 599.85 705.871 599.619 705.81 599.409C705.749 599.194 705.63 599.012 705.453 598.863C705.28 598.714 705.033 598.597 704.711 598.513C704.394 598.424 703.976 598.38 703.458 598.38V597.295C703.883 597.29 704.24 597.248 704.529 597.169C704.823 597.085 705.056 596.973 705.229 596.833C705.406 596.688 705.532 596.516 705.607 596.315C705.686 596.114 705.726 595.895 705.726 595.657C705.726 595.4 705.686 595.174 705.607 594.978C705.528 594.782 705.416 594.619 705.271 594.488C705.131 594.353 704.963 594.252 704.767 594.187C704.571 594.122 704.354 594.089 704.116 594.089C703.887 594.089 703.675 594.122 703.479 594.187C703.288 594.252 703.115 594.343 702.961 594.46C702.812 594.577 702.686 594.717 702.583 594.88C702.48 595.039 702.406 595.214 702.359 595.405C702.294 595.596 702.205 595.725 702.093 595.79C701.986 595.855 701.827 595.869 701.617 595.832L700.826 595.692Z" fill="white"/>
<circle cx="144" cy="1075" r="15" fill="#E8804C"/>
<path d="M145.047 1076.28V1072.59C145.047 1072.3 145.068 1071.98 145.11 1071.63L141.722 1076.28H145.047ZM147.749 1076.28V1077.14C147.749 1077.23 147.721 1077.3 147.665 1077.36C147.614 1077.42 147.534 1077.45 147.427 1077.45H146.356V1080H145.047V1077.45H140.686C140.579 1077.45 140.485 1077.42 140.406 1077.36C140.331 1077.3 140.282 1077.22 140.259 1077.12L140.105 1076.35L144.942 1069.91H146.356V1076.28H147.749Z" fill="white"/>
</svg>
