<svg width="548" height="492" viewBox="0 0 548 492" fill="none" xmlns="http://www.w3.org/2000/svg">
<path d="M119.436 214.564C123.372 213.796 127.164 213.268 130.812 212.98C134.46 212.692 138.012 212.548 141.468 212.548C152.508 212.548 162.252 214.228 170.7 217.588C179.148 220.948 186.252 225.556 192.012 231.412C197.772 237.172 202.092 243.988 204.972 251.86C207.948 259.636 209.436 267.988 209.436 276.916C209.436 288.148 207.42 298.42 203.388 307.732C199.452 316.948 193.932 324.916 186.828 331.636C179.724 338.356 171.228 343.588 161.34 347.332C151.548 350.98 140.796 352.804 129.084 352.804C122.268 352.804 115.74 352.084 109.5 350.644C103.356 349.204 97.548 347.284 92.076 344.884C86.7 342.388 81.708 339.556 77.1 336.388C72.492 333.124 68.316 329.668 64.572 326.02L78.396 307.588C79.836 305.668 81.516 304.228 83.436 303.268C85.356 302.212 87.42 301.684 89.628 301.684C92.508 301.684 95.196 302.5 97.692 304.132C100.284 305.668 103.068 307.396 106.044 309.316C109.116 311.14 112.668 312.82 116.7 314.356C120.732 315.892 125.724 316.66 131.676 316.66C137.628 316.66 142.716 315.7 146.94 313.78C151.164 311.764 154.572 309.076 157.164 305.716C159.852 302.26 161.772 298.276 162.924 293.764C164.172 289.156 164.796 284.26 164.796 279.076C164.796 268.9 161.916 261.172 156.156 255.892C150.396 250.516 142.236 247.828 131.676 247.828C122.268 247.828 113.052 249.604 104.028 253.156L76.38 245.668L94.236 140.692H201.66V159.124C201.66 162.196 201.18 164.98 200.22 167.476C199.26 169.972 197.724 172.18 195.612 174.1C193.596 175.924 190.908 177.364 187.548 178.42C184.188 179.38 180.156 179.86 175.452 179.86H125.34L119.436 214.564ZM383.843 245.524C383.843 263.86 381.875 279.748 377.938 293.188C374.003 306.628 368.531 317.764 361.523 326.596C354.611 335.428 346.355 342.004 336.755 346.324C327.251 350.644 316.931 352.804 305.795 352.804C294.659 352.804 284.339 350.644 274.835 346.324C265.427 342.004 257.267 335.428 250.355 326.596C243.443 317.764 238.019 306.628 234.083 293.188C230.243 279.748 228.323 263.86 228.323 245.524C228.323 227.188 230.243 211.3 234.083 197.86C238.019 184.42 243.443 173.284 250.355 164.452C257.267 155.62 265.427 149.092 274.835 144.868C284.339 140.548 294.659 138.388 305.795 138.388C316.931 138.388 327.251 140.548 336.755 144.868C346.355 149.092 354.611 155.62 361.523 164.452C368.531 173.284 374.003 184.42 377.938 197.86C381.875 211.3 383.843 227.188 383.843 245.524ZM337.763 245.524C337.763 231.028 336.851 219.172 335.027 209.956C333.203 200.644 330.755 193.348 327.683 188.068C324.707 182.788 321.299 179.188 317.459 177.268C313.619 175.252 309.731 174.244 305.795 174.244C301.859 174.244 297.971 175.252 294.131 177.268C290.387 179.188 287.027 182.788 284.051 188.068C281.171 193.348 278.819 200.644 276.995 209.956C275.267 219.172 274.403 231.028 274.403 245.524C274.403 260.116 275.267 272.02 276.995 281.236C278.819 290.452 281.171 297.748 284.051 303.124C287.027 308.404 290.387 312.052 294.131 314.068C297.971 315.988 301.859 316.948 305.795 316.948C309.731 316.948 313.619 315.988 317.459 314.068C321.299 312.052 324.707 308.404 327.683 303.124C330.755 297.748 333.203 290.452 335.027 281.236C336.851 272.02 337.763 260.116 337.763 245.524Z" fill="#E8804C"/>
<path d="M413.644 361.86C409.9 361.86 406.492 361.14 403.42 359.7C400.396 358.26 397.78 356.316 395.572 353.868C393.412 351.372 391.732 348.588 390.532 345.516C389.332 342.396 388.732 339.204 388.732 335.94C388.732 332.532 389.356 329.292 390.604 326.22C391.852 323.1 393.604 320.34 395.86 317.94C398.116 315.492 400.756 313.572 403.78 312.18C406.852 310.74 410.212 310.02 413.86 310.02C417.556 310.02 420.916 310.764 423.94 312.252C427.012 313.74 429.628 315.732 431.788 318.228C433.996 320.724 435.676 323.532 436.828 326.652C438.028 329.724 438.628 332.868 438.628 336.084C438.628 339.444 438.004 342.684 436.756 345.804C435.508 348.876 433.756 351.636 431.5 354.084C429.292 356.484 426.652 358.38 423.58 359.772C420.556 361.164 417.244 361.86 413.644 361.86ZM398.812 335.94C398.812 338.916 399.388 341.7 400.54 344.292C401.74 346.884 403.444 348.996 405.652 350.628C407.908 352.26 410.596 353.076 413.716 353.076C416.932 353.076 419.644 352.236 421.852 350.556C424.06 348.876 425.74 346.716 426.892 344.076C428.044 341.436 428.62 338.724 428.62 335.94C428.62 332.964 428.02 330.18 426.82 327.588C425.62 324.996 423.892 322.908 421.636 321.324C419.428 319.692 416.788 318.876 413.716 318.876C410.5 318.876 407.788 319.716 405.58 321.396C403.372 323.076 401.692 325.236 400.54 327.876C399.388 330.468 398.812 333.156 398.812 335.94ZM443.37 361.5V310.38H477.714V319.092H453.306V332.268H473.61V340.332H453.306V361.5H443.37ZM481.834 361.5V310.38H516.178V319.092H491.77V332.268H512.074V340.332H491.77V361.5H481.834Z" fill="#1697B7"/>
<path d="M398.5 36.5L390 86L420 46L398.5 36.5Z" fill="#30C3CD"/>
<path d="M495 0L420 94.5L537.5 46L495 0Z" fill="#30C3CD"/>
<path d="M537.5 77.5L477 101.5L548 110L537.5 77.5Z" fill="#30C3CD"/>
<path d="M18 361.5L82 401L9.5 394L18 361.5Z" fill="#30C3CD"/>
<path d="M0 425.5H128L18 481L0 425.5Z" fill="#30C3CD"/>
<path d="M103.5 471.5L151 449.5L128 492L103.5 471.5Z" fill="#30C3CD"/>
<path d="M419.8 209.24C414.68 209.24 410.04 208.173 405.88 206.04C401.827 203.8 398.573 200.813 396.12 197.08C393.667 193.24 392.44 189.027 392.44 184.44C392.44 179.853 393.667 175.693 396.12 171.96C398.573 168.227 401.827 165.293 405.88 163.16C410.04 160.92 414.68 159.8 419.8 159.8C424.92 159.8 429.56 160.92 433.72 163.16C437.88 165.293 441.133 168.227 443.48 171.96C445.933 175.693 447.16 179.853 447.16 184.44C447.16 189.027 445.933 193.24 443.48 197.08C441.133 200.813 437.88 203.8 433.72 206.04C429.56 208.173 424.92 209.24 419.8 209.24ZM403.48 266.04L448.76 214.2L489.72 159.96L501.08 170.2L457.4 220.76L414.84 276.44L403.48 266.04ZM419.8 196.76C422.467 196.76 424.707 195.587 426.52 193.24C428.44 190.787 429.4 187.853 429.4 184.44C429.4 181.133 428.44 178.307 426.52 175.96C424.6 173.507 422.36 172.28 419.8 172.28C417.133 172.28 414.84 173.507 412.92 175.96C411.107 178.307 410.2 181.133 410.2 184.44C410.2 187.853 411.16 190.787 413.08 193.24C415 195.587 417.24 196.76 419.8 196.76ZM484.76 276.6C479.64 276.6 475 275.533 470.84 273.4C466.787 271.16 463.533 268.173 461.08 264.44C458.627 260.707 457.4 256.547 457.4 251.96C457.4 247.373 458.627 243.213 461.08 239.48C463.533 235.64 466.787 232.653 470.84 230.52C475 228.28 479.64 227.16 484.76 227.16C489.88 227.16 494.52 228.28 498.68 230.52C502.84 232.653 506.093 235.64 508.44 239.48C510.893 243.213 512.12 247.373 512.12 251.96C512.12 256.547 510.893 260.707 508.44 264.44C506.093 268.173 502.84 271.16 498.68 273.4C494.52 275.533 489.88 276.6 484.76 276.6ZM484.76 264.12C487.427 264.12 489.72 262.947 491.64 260.6C493.56 258.147 494.52 255.267 494.52 251.96C494.52 248.547 493.56 245.667 491.64 243.32C489.72 240.867 487.427 239.64 484.76 239.64C482.093 239.64 479.8 240.867 477.88 243.32C476.067 245.667 475.16 248.547 475.16 251.96C475.16 255.267 476.12 258.147 478.04 260.6C479.96 262.947 482.2 264.12 484.76 264.12Z" fill="#1697B7"/>
<path d="M78.5 47.5H55.5V349.5" stroke="#E8804C" stroke-width="2"/>
<path d="M533.5 132V454.5H502.5" stroke="#E8804C" stroke-width="2"/>
<path d="M244 47.5H366" stroke="#E8804C" stroke-width="2"/>
<path d="M175 454.5H218.5" stroke="#E8804C" stroke-width="2"/>
<path d="M109.236 61.964C110.564 61.964 111.748 61.74 112.788 61.292C113.844 60.844 114.732 60.22 115.452 59.42C116.188 58.62 116.748 57.66 117.132 56.54C117.516 55.404 117.708 54.148 117.708 52.772V31.94H123.3V52.772C123.3 54.804 122.972 56.684 122.316 58.412C121.676 60.14 120.748 61.636 119.532 62.9C118.316 64.148 116.836 65.132 115.092 65.852C113.364 66.556 111.412 66.908 109.236 66.908C107.06 66.908 105.1 66.556 103.356 65.852C101.628 65.132 100.156 64.148 98.94 62.9C97.724 61.636 96.788 60.14 96.132 58.412C95.492 56.684 95.172 54.804 95.172 52.772V31.94H100.788V52.748C100.788 54.124 100.98 55.38 101.364 56.516C101.748 57.636 102.3 58.604 103.02 59.42C103.74 60.22 104.62 60.844 105.66 61.292C106.716 61.74 107.908 61.964 109.236 61.964ZM141.84 49.556C143.088 49.556 144.184 49.396 145.128 49.076C146.088 48.756 146.88 48.308 147.504 47.732C148.144 47.14 148.624 46.428 148.944 45.596C149.264 44.764 149.424 43.836 149.424 42.812C149.424 41.804 149.264 40.9 148.944 40.1C148.64 39.3 148.176 38.62 147.552 38.06C146.928 37.5 146.136 37.076 145.176 36.788C144.232 36.484 143.12 36.332 141.84 36.332H136.704V49.556H141.84ZM141.84 31.94C144.096 31.94 146.048 32.204 147.696 32.732C149.36 33.26 150.728 34.004 151.8 34.964C152.888 35.908 153.696 37.052 154.224 38.396C154.752 39.724 155.016 41.196 155.016 42.812C155.016 44.46 154.736 45.972 154.176 47.348C153.616 48.708 152.784 49.884 151.68 50.876C150.576 51.852 149.2 52.62 147.552 53.18C145.92 53.724 144.016 53.996 141.84 53.996H136.704V66.5H131.088V31.94H141.84ZM193.357 36.62H182.581V66.5H176.989V36.62H166.189V31.94H193.357V36.62ZM229.279 49.22C229.279 51.78 228.863 54.14 228.031 56.3C227.199 58.46 226.023 60.324 224.503 61.892C222.999 63.444 221.183 64.66 219.055 65.54C216.943 66.42 214.591 66.86 211.999 66.86C209.423 66.86 207.071 66.42 204.943 65.54C202.831 64.66 201.015 63.444 199.495 61.892C197.975 60.324 196.799 58.46 195.967 56.3C195.135 54.14 194.719 51.78 194.719 49.22C194.719 46.66 195.135 44.3 195.967 42.14C196.799 39.98 197.975 38.116 199.495 36.548C201.015 34.98 202.831 33.756 204.943 32.876C207.071 31.996 209.423 31.556 211.999 31.556C214.591 31.556 216.943 31.996 219.055 32.876C221.183 33.756 222.999 34.98 224.503 36.548C226.023 38.116 227.199 39.98 228.031 42.14C228.863 44.3 229.279 46.66 229.279 49.22ZM223.543 49.22C223.543 47.236 223.271 45.452 222.727 43.868C222.199 42.284 221.431 40.94 220.423 39.836C219.431 38.732 218.223 37.884 216.799 37.292C215.375 36.7 213.775 36.404 211.999 36.404C210.239 36.404 208.647 36.7 207.223 37.292C205.799 37.884 204.583 38.732 203.575 39.836C202.567 40.94 201.791 42.284 201.247 43.868C200.703 45.452 200.431 47.236 200.431 49.22C200.431 51.22 200.703 53.012 201.247 54.596C201.791 56.18 202.567 57.524 203.575 58.628C204.583 59.716 205.799 60.556 207.223 61.148C208.647 61.724 210.239 62.012 211.999 62.012C213.775 62.012 215.375 61.724 216.799 61.148C218.223 60.556 219.431 59.716 220.423 58.628C221.431 57.524 222.199 56.18 222.727 54.596C223.271 53.012 223.543 51.22 223.543 49.22Z" fill="#1697B7"/>
<path d="M270.94 456.22C270.94 458.78 270.524 461.124 269.692 463.252C268.86 465.364 267.684 467.18 266.164 468.7C264.66 470.22 262.844 471.404 260.716 472.252C258.604 473.084 256.252 473.5 253.66 473.5H240.604V438.94H253.66C256.252 438.94 258.604 439.364 260.716 440.212C262.844 441.044 264.66 442.22 266.164 443.74C267.684 445.26 268.86 447.084 269.692 449.212C270.524 451.324 270.94 453.66 270.94 456.22ZM265.204 456.22C265.204 454.236 264.932 452.452 264.388 450.868C263.86 449.284 263.092 447.948 262.084 446.86C261.092 445.772 259.884 444.94 258.46 444.364C257.036 443.772 255.436 443.476 253.66 443.476H246.244V468.964H253.66C255.436 468.964 257.036 468.676 258.46 468.1C259.884 467.524 261.092 466.692 262.084 465.604C263.092 464.5 263.86 463.164 264.388 461.596C264.932 460.012 265.204 458.22 265.204 456.22ZM282.76 473.5H277.12V438.94H282.76V473.5ZM309.02 444.844C308.844 445.132 308.66 445.348 308.468 445.492C308.276 445.62 308.036 445.684 307.748 445.684C307.444 445.684 307.1 445.556 306.716 445.3C306.348 445.044 305.884 444.764 305.324 444.46C304.78 444.14 304.132 443.852 303.38 443.596C302.628 443.324 301.732 443.188 300.692 443.188C299.732 443.188 298.884 443.308 298.148 443.548C297.428 443.788 296.82 444.124 296.324 444.556C295.828 444.988 295.452 445.5 295.196 446.092C294.956 446.668 294.836 447.3 294.836 447.988C294.836 448.868 295.068 449.604 295.532 450.196C295.996 450.772 296.604 451.268 297.356 451.684C298.124 452.1 298.996 452.468 299.972 452.788C300.948 453.092 301.94 453.42 302.948 453.772C303.972 454.124 304.972 454.524 305.948 454.972C306.924 455.42 307.788 455.988 308.54 456.676C309.308 457.364 309.924 458.204 310.388 459.196C310.852 460.188 311.084 461.396 311.084 462.82C311.084 464.356 310.82 465.796 310.292 467.14C309.764 468.484 308.996 469.66 307.988 470.668C306.996 471.66 305.764 472.444 304.292 473.02C302.836 473.596 301.172 473.884 299.3 473.884C298.196 473.884 297.116 473.772 296.06 473.548C295.02 473.34 294.02 473.044 293.06 472.66C292.116 472.26 291.228 471.78 290.396 471.22C289.564 470.66 288.82 470.036 288.164 469.348L289.796 466.66C289.94 466.436 290.124 466.26 290.348 466.132C290.572 466.004 290.82 465.94 291.092 465.94C291.46 465.94 291.868 466.116 292.316 466.468C292.764 466.804 293.3 467.18 293.924 467.596C294.564 467.996 295.332 468.372 296.228 468.724C297.124 469.06 298.196 469.228 299.444 469.228C301.476 469.228 303.044 468.732 304.148 467.74C305.268 466.748 305.828 465.38 305.828 463.636C305.828 462.66 305.596 461.868 305.132 461.26C304.668 460.636 304.052 460.116 303.284 459.7C302.532 459.284 301.668 458.932 300.692 458.644C299.716 458.356 298.724 458.052 297.716 457.732C296.708 457.396 295.716 457.012 294.74 456.58C293.764 456.132 292.892 455.556 292.124 454.852C291.372 454.132 290.764 453.252 290.3 452.212C289.836 451.156 289.604 449.844 289.604 448.276C289.604 447.028 289.844 445.82 290.324 444.652C290.82 443.484 291.532 442.452 292.46 441.556C293.404 440.644 294.564 439.916 295.94 439.372C297.316 438.828 298.884 438.556 300.644 438.556C302.628 438.556 304.444 438.868 306.092 439.492C307.756 440.116 309.188 441.004 310.388 442.156L309.02 444.844ZM341.151 465.796C341.455 465.796 341.719 465.916 341.943 466.156L344.175 468.58C342.767 470.276 341.039 471.588 338.991 472.516C336.943 473.428 334.495 473.884 331.647 473.884C329.119 473.884 326.831 473.452 324.783 472.588C322.751 471.708 321.015 470.492 319.575 468.94C318.135 467.372 317.023 465.508 316.239 463.348C315.471 461.188 315.087 458.812 315.087 456.22C315.087 453.628 315.495 451.252 316.311 449.092C317.143 446.916 318.303 445.052 319.791 443.5C321.295 441.932 323.087 440.716 325.167 439.852C327.263 438.988 329.567 438.556 332.079 438.556C334.575 438.556 336.775 438.964 338.679 439.78C340.599 440.58 342.263 441.652 343.671 442.996L341.823 445.612C341.695 445.788 341.543 445.94 341.367 446.068C341.191 446.196 340.951 446.26 340.647 446.26C340.327 446.26 339.959 446.116 339.543 445.828C339.143 445.524 338.623 445.196 337.983 444.844C337.359 444.476 336.567 444.148 335.607 443.86C334.663 443.556 333.479 443.404 332.055 443.404C330.407 443.404 328.895 443.692 327.519 444.268C326.143 444.844 324.959 445.684 323.967 446.788C322.975 447.892 322.199 449.236 321.639 450.82C321.095 452.404 320.823 454.204 320.823 456.22C320.823 458.252 321.111 460.068 321.687 461.668C322.263 463.252 323.055 464.596 324.063 465.7C325.071 466.788 326.255 467.62 327.615 468.196C328.975 468.772 330.439 469.06 332.007 469.06C332.967 469.06 333.823 469.012 334.575 468.916C335.343 468.804 336.047 468.636 336.687 468.412C337.327 468.172 337.927 467.876 338.487 467.524C339.063 467.172 339.631 466.74 340.191 466.228C340.511 465.94 340.831 465.796 341.151 465.796ZM380.795 456.22C380.795 458.78 380.379 461.14 379.547 463.3C378.715 465.46 377.539 467.324 376.019 468.892C374.515 470.444 372.699 471.66 370.571 472.54C368.459 473.42 366.107 473.86 363.515 473.86C360.939 473.86 358.587 473.42 356.459 472.54C354.347 471.66 352.531 470.444 351.011 468.892C349.491 467.324 348.315 465.46 347.483 463.3C346.651 461.14 346.235 458.78 346.235 456.22C346.235 453.66 346.651 451.3 347.483 449.14C348.315 446.98 349.491 445.116 351.011 443.548C352.531 441.98 354.347 440.756 356.459 439.876C358.587 438.996 360.939 438.556 363.515 438.556C366.107 438.556 368.459 438.996 370.571 439.876C372.699 440.756 374.515 441.98 376.019 443.548C377.539 445.116 378.715 446.98 379.547 449.14C380.379 451.3 380.795 453.66 380.795 456.22ZM375.059 456.22C375.059 454.236 374.787 452.452 374.243 450.868C373.715 449.284 372.947 447.94 371.939 446.836C370.947 445.732 369.739 444.884 368.315 444.292C366.891 443.7 365.291 443.404 363.515 443.404C361.755 443.404 360.163 443.7 358.739 444.292C357.315 444.884 356.099 445.732 355.091 446.836C354.083 447.94 353.307 449.284 352.763 450.868C352.219 452.452 351.947 454.236 351.947 456.22C351.947 458.22 352.219 460.012 352.763 461.596C353.307 463.18 354.083 464.524 355.091 465.628C356.099 466.716 357.315 467.556 358.739 468.148C360.163 468.724 361.755 469.012 363.515 469.012C365.291 469.012 366.891 468.724 368.315 468.148C369.739 467.556 370.947 466.716 371.939 465.628C372.947 464.524 373.715 463.18 374.243 461.596C374.787 460.012 375.059 458.22 375.059 456.22ZM400.58 468.964C401.908 468.964 403.092 468.74 404.132 468.292C405.188 467.844 406.076 467.22 406.796 466.42C407.532 465.62 408.092 464.66 408.476 463.54C408.86 462.404 409.052 461.148 409.052 459.772V438.94H414.644V459.772C414.644 461.804 414.316 463.684 413.66 465.412C413.02 467.14 412.092 468.636 410.876 469.9C409.66 471.148 408.18 472.132 406.436 472.852C404.708 473.556 402.756 473.908 400.58 473.908C398.404 473.908 396.444 473.556 394.7 472.852C392.972 472.132 391.5 471.148 390.284 469.9C389.068 468.636 388.132 467.14 387.476 465.412C386.836 463.684 386.516 461.804 386.516 459.772V438.94H392.132V459.748C392.132 461.124 392.324 462.38 392.708 463.516C393.092 464.636 393.644 465.604 394.364 466.42C395.084 467.22 395.964 467.844 397.004 468.292C398.06 468.74 399.252 468.964 400.58 468.964ZM451.04 438.94V473.5H448.184C447.752 473.5 447.384 473.428 447.08 473.284C446.776 473.124 446.488 472.868 446.216 472.516L427.232 448.132C427.28 448.596 427.312 449.06 427.328 449.524C427.36 449.972 427.376 450.388 427.376 450.772V473.5H422.432V438.94H425.36C425.6 438.94 425.8 438.956 425.96 438.988C426.136 439.004 426.296 439.044 426.44 439.108C426.584 439.172 426.72 439.268 426.848 439.396C426.976 439.524 427.112 439.684 427.256 439.876L446.264 464.284C446.216 463.788 446.176 463.3 446.144 462.82C446.128 462.34 446.12 461.892 446.12 461.476V438.94H451.04ZM483.06 443.62H472.284V473.5H466.692V443.62H455.892V438.94H483.06V443.62Z" fill="#1697B7"/>
<path d="M276.036 419.648V422H266.052V404.72H268.86V419.648H276.036ZM284.51 416.648C283.59 416.68 282.814 416.756 282.182 416.876C281.55 416.988 281.038 417.136 280.646 417.32C280.254 417.496 279.97 417.708 279.794 417.956C279.626 418.204 279.542 418.476 279.542 418.772C279.542 419.06 279.586 419.308 279.674 419.516C279.77 419.716 279.898 419.884 280.058 420.02C280.226 420.148 280.418 420.244 280.634 420.308C280.858 420.364 281.102 420.392 281.366 420.392C282.038 420.392 282.614 420.268 283.094 420.02C283.582 419.764 284.054 419.396 284.51 418.916V416.648ZM277.67 411.464C279.054 410.176 280.702 409.532 282.614 409.532C283.318 409.532 283.942 409.648 284.486 409.88C285.038 410.104 285.498 410.424 285.866 410.84C286.242 411.256 286.526 411.752 286.718 412.328C286.918 412.896 287.018 413.528 287.018 414.224V422H285.866C285.618 422 285.43 421.964 285.302 421.892C285.174 421.812 285.066 421.656 284.978 421.424L284.726 420.428C284.414 420.708 284.106 420.96 283.802 421.184C283.498 421.4 283.182 421.584 282.854 421.736C282.534 421.888 282.186 422 281.81 422.072C281.442 422.152 281.034 422.192 280.586 422.192C280.09 422.192 279.626 422.124 279.194 421.988C278.77 421.852 278.402 421.648 278.09 421.376C277.778 421.096 277.53 420.752 277.346 420.344C277.17 419.936 277.082 419.456 277.082 418.904C277.082 418.432 277.206 417.972 277.454 417.524C277.71 417.076 278.126 416.676 278.702 416.324C279.286 415.964 280.05 415.668 280.994 415.436C281.946 415.204 283.118 415.072 284.51 415.04V414.224C284.51 413.344 284.322 412.688 283.946 412.256C283.57 411.824 283.018 411.608 282.29 411.608C281.794 411.608 281.378 411.672 281.042 411.8C280.706 411.92 280.414 412.052 280.166 412.196C279.918 412.34 279.698 412.476 279.506 412.604C279.314 412.724 279.11 412.784 278.894 412.784C278.718 412.784 278.566 412.74 278.438 412.652C278.318 412.556 278.218 412.44 278.138 412.304L277.67 411.464ZM297.349 411.98C297.285 412.092 297.213 412.172 297.133 412.22C297.053 412.268 296.953 412.292 296.833 412.292C296.697 412.292 296.549 412.252 296.389 412.172C296.229 412.084 296.041 411.988 295.825 411.884C295.609 411.78 295.353 411.688 295.057 411.608C294.769 411.52 294.429 411.476 294.037 411.476C293.717 411.476 293.425 411.516 293.161 411.596C292.905 411.668 292.685 411.776 292.501 411.92C292.325 412.056 292.189 412.22 292.093 412.412C291.997 412.596 291.949 412.796 291.949 413.012C291.949 413.3 292.037 413.54 292.213 413.732C292.389 413.924 292.621 414.092 292.909 414.236C293.197 414.372 293.525 414.496 293.893 414.608C294.261 414.72 294.637 414.84 295.021 414.968C295.405 415.096 295.781 415.244 296.149 415.412C296.517 415.58 296.845 415.788 297.133 416.036C297.421 416.276 297.653 416.572 297.829 416.924C298.005 417.268 298.093 417.688 298.093 418.184C298.093 418.76 297.989 419.292 297.781 419.78C297.573 420.268 297.269 420.692 296.869 421.052C296.469 421.412 295.969 421.692 295.369 421.892C294.777 422.092 294.097 422.192 293.329 422.192C292.905 422.192 292.493 422.152 292.093 422.072C291.701 422 291.325 421.9 290.965 421.772C290.613 421.636 290.281 421.476 289.969 421.292C289.665 421.108 289.393 420.908 289.153 420.692L289.753 419.708C289.825 419.588 289.913 419.496 290.017 419.432C290.129 419.36 290.265 419.324 290.425 419.324C290.593 419.324 290.757 419.38 290.917 419.492C291.085 419.596 291.277 419.712 291.493 419.84C291.717 419.968 291.985 420.088 292.297 420.2C292.609 420.304 292.997 420.356 293.461 420.356C293.845 420.356 294.177 420.312 294.457 420.224C294.737 420.128 294.969 420 295.153 419.84C295.337 419.68 295.473 419.5 295.561 419.3C295.649 419.092 295.693 418.872 295.693 418.64C295.693 418.328 295.605 418.072 295.429 417.872C295.253 417.672 295.017 417.5 294.721 417.356C294.433 417.212 294.101 417.084 293.725 416.972C293.357 416.86 292.981 416.74 292.597 416.612C292.213 416.484 291.833 416.336 291.457 416.168C291.089 416 290.757 415.788 290.461 415.532C290.173 415.268 289.941 414.952 289.765 414.584C289.589 414.208 289.501 413.752 289.501 413.216C289.501 412.728 289.597 412.264 289.789 411.824C289.989 411.384 290.277 410.996 290.653 410.66C291.037 410.324 291.505 410.06 292.057 409.868C292.617 409.668 293.261 409.568 293.989 409.568C294.813 409.568 295.561 409.7 296.233 409.964C296.905 410.228 297.469 410.588 297.925 411.044L297.349 411.98ZM304.441 422.192C303.425 422.192 302.641 421.908 302.089 421.34C301.545 420.764 301.273 419.956 301.273 418.916V411.788H299.929C299.785 411.788 299.661 411.744 299.557 411.656C299.453 411.56 299.401 411.42 299.401 411.236V410.192L301.381 409.904L301.945 406.364C301.985 406.228 302.053 406.12 302.149 406.04C302.245 405.952 302.373 405.908 302.533 405.908H303.853V409.928H307.249V411.788H303.853V418.736C303.853 419.176 303.961 419.512 304.177 419.744C304.393 419.976 304.681 420.092 305.041 420.092C305.241 420.092 305.413 420.068 305.557 420.02C305.701 419.964 305.825 419.908 305.929 419.852C306.033 419.788 306.121 419.732 306.193 419.684C306.273 419.628 306.349 419.6 306.421 419.6C306.565 419.6 306.681 419.68 306.769 419.84L307.537 421.1C307.137 421.452 306.665 421.724 306.121 421.916C305.577 422.1 305.017 422.192 304.441 422.192ZM334.124 404.72V422H331.652V410.156C331.652 409.964 331.656 409.756 331.664 409.532C331.68 409.3 331.7 409.068 331.724 408.836L326.168 419.096C325.952 419.52 325.62 419.732 325.172 419.732H324.776C324.32 419.732 323.988 419.52 323.78 419.096L318.14 408.812C318.164 409.044 318.18 409.276 318.188 409.508C318.204 409.74 318.212 409.956 318.212 410.156V422H315.74V404.72H317.84C318.088 404.72 318.28 404.744 318.416 404.792C318.552 404.832 318.676 404.964 318.788 405.188L324.332 415.232C324.452 415.464 324.564 415.704 324.668 415.952C324.78 416.192 324.88 416.44 324.968 416.696C325.064 416.44 325.164 416.188 325.268 415.94C325.38 415.684 325.496 415.44 325.616 415.208L331.076 405.188C331.188 404.964 331.312 404.832 331.448 404.792C331.584 404.744 331.776 404.72 332.024 404.72H334.124ZM340.237 409.76V422H337.657V409.76H340.237ZM340.669 406.064C340.669 406.296 340.621 406.516 340.525 406.724C340.437 406.932 340.313 407.116 340.153 407.276C339.993 407.428 339.805 407.552 339.589 407.648C339.381 407.736 339.157 407.78 338.917 407.78C338.685 407.78 338.465 407.736 338.257 407.648C338.057 407.552 337.881 407.428 337.729 407.276C337.577 407.116 337.453 406.932 337.357 406.724C337.269 406.516 337.225 406.296 337.225 406.064C337.225 405.824 337.269 405.6 337.357 405.392C337.453 405.184 337.577 405.004 337.729 404.852C337.881 404.692 338.057 404.568 338.257 404.48C338.465 404.384 338.685 404.336 338.917 404.336C339.157 404.336 339.381 404.384 339.589 404.48C339.805 404.568 339.993 404.692 340.153 404.852C340.313 405.004 340.437 405.184 340.525 405.392C340.621 405.6 340.669 405.824 340.669 406.064ZM345.89 411.38C346.154 411.108 346.426 410.864 346.706 410.648C346.994 410.424 347.298 410.232 347.618 410.072C347.938 409.912 348.278 409.788 348.638 409.7C348.998 409.612 349.39 409.568 349.814 409.568C350.486 409.568 351.074 409.68 351.578 409.904C352.09 410.128 352.518 410.444 352.862 410.852C353.214 411.26 353.478 411.752 353.654 412.328C353.83 412.896 353.918 413.524 353.918 414.212V422H351.35V414.212C351.35 413.388 351.158 412.748 350.774 412.292C350.398 411.836 349.822 411.608 349.046 411.608C348.47 411.608 347.934 411.74 347.438 412.004C346.95 412.268 346.49 412.628 346.058 413.084V422H343.478V409.76H345.038C345.39 409.76 345.614 409.924 345.71 410.252L345.89 411.38ZM367.251 409.76V422H365.691C365.347 422 365.127 421.836 365.031 421.508L364.839 420.368C364.583 420.64 364.311 420.888 364.023 421.112C363.743 421.336 363.443 421.528 363.123 421.688C362.803 421.848 362.459 421.972 362.091 422.06C361.731 422.148 361.343 422.192 360.927 422.192C360.255 422.192 359.663 422.08 359.151 421.856C358.639 421.632 358.207 421.316 357.855 420.908C357.511 420.5 357.251 420.012 357.075 419.444C356.899 418.868 356.811 418.236 356.811 417.548V409.76H359.391V417.548C359.391 418.372 359.579 419.012 359.955 419.468C360.339 419.924 360.919 420.152 361.695 420.152C362.263 420.152 362.791 420.024 363.279 419.768C363.775 419.504 364.239 419.144 364.671 418.688V409.76H367.251ZM374.309 422.192C373.293 422.192 372.509 421.908 371.957 421.34C371.413 420.764 371.141 419.956 371.141 418.916V411.788H369.797C369.653 411.788 369.529 411.744 369.425 411.656C369.321 411.56 369.269 411.42 369.269 411.236V410.192L371.249 409.904L371.812 406.364C371.853 406.228 371.921 406.12 372.017 406.04C372.113 405.952 372.241 405.908 372.401 405.908H373.721V409.928H377.117V411.788H373.721V418.736C373.721 419.176 373.829 419.512 374.045 419.744C374.261 419.976 374.549 420.092 374.909 420.092C375.109 420.092 375.281 420.068 375.424 420.02C375.569 419.964 375.693 419.908 375.797 419.852C375.901 419.788 375.989 419.732 376.061 419.684C376.141 419.628 376.217 419.6 376.289 419.6C376.433 419.6 376.549 419.68 376.637 419.84L377.405 421.1C377.005 421.452 376.533 421.724 375.989 421.916C375.445 422.1 374.885 422.192 374.309 422.192ZM387.084 414.5C387.084 414.068 387.02 413.668 386.892 413.3C386.772 412.924 386.592 412.6 386.352 412.328C386.112 412.048 385.812 411.832 385.452 411.68C385.1 411.52 384.692 411.44 384.228 411.44C383.292 411.44 382.556 411.708 382.02 412.244C381.484 412.78 381.144 413.532 381 414.5H387.084ZM380.928 416.084C380.96 416.78 381.068 417.384 381.252 417.896C381.436 418.4 381.68 418.82 381.984 419.156C382.296 419.492 382.664 419.744 383.088 419.912C383.52 420.072 384 420.152 384.528 420.152C385.032 420.152 385.468 420.096 385.836 419.984C386.204 419.864 386.524 419.736 386.796 419.6C387.068 419.456 387.3 419.328 387.492 419.216C387.684 419.096 387.86 419.036 388.02 419.036C388.228 419.036 388.388 419.116 388.5 419.276L389.232 420.224C388.928 420.584 388.584 420.888 388.2 421.136C387.816 421.384 387.408 421.588 386.976 421.748C386.544 421.9 386.1 422.008 385.644 422.072C385.188 422.144 384.744 422.18 384.312 422.18C383.464 422.18 382.676 422.04 381.948 421.76C381.228 421.472 380.6 421.052 380.064 420.5C379.536 419.948 379.12 419.264 378.816 418.448C378.52 417.632 378.372 416.692 378.372 415.628C378.372 414.78 378.504 413.988 378.768 413.252C379.04 412.516 379.424 411.876 379.92 411.332C380.424 410.788 381.032 410.36 381.744 410.048C382.464 409.728 383.276 409.568 384.18 409.568C384.932 409.568 385.628 409.692 386.268 409.94C386.908 410.18 387.46 410.536 387.924 411.008C388.388 411.48 388.748 412.06 389.004 412.748C389.268 413.428 389.4 414.204 389.4 415.076C389.4 415.476 389.356 415.744 389.268 415.88C389.18 416.016 389.02 416.084 388.788 416.084H380.928ZM414.499 413.36C414.499 414.64 414.291 415.82 413.875 416.9C413.459 417.98 412.871 418.912 412.111 419.696C411.359 420.472 410.451 421.08 409.387 421.52C408.331 421.96 407.155 422.18 405.859 422.18C404.571 422.18 403.395 421.96 402.331 421.52C401.275 421.08 400.367 420.472 399.607 419.696C398.847 418.912 398.259 417.98 397.843 416.9C397.427 415.82 397.219 414.64 397.219 413.36C397.219 412.08 397.427 410.9 397.843 409.82C398.259 408.74 398.847 407.808 399.607 407.024C400.367 406.24 401.275 405.628 402.331 405.188C403.395 404.748 404.571 404.528 405.859 404.528C407.155 404.528 408.331 404.748 409.387 405.188C410.451 405.628 411.359 406.24 412.111 407.024C412.871 407.808 413.459 408.74 413.875 409.82C414.291 410.9 414.499 412.08 414.499 413.36ZM411.631 413.36C411.631 412.368 411.495 411.476 411.223 410.684C410.959 409.892 410.575 409.22 410.071 408.668C409.575 408.116 408.971 407.692 408.259 407.396C407.547 407.1 406.747 406.952 405.859 406.952C404.979 406.952 404.183 407.1 403.471 407.396C402.759 407.692 402.151 408.116 401.647 408.668C401.143 409.22 400.755 409.892 400.483 410.684C400.211 411.476 400.075 412.368 400.075 413.36C400.075 414.36 400.211 415.256 400.483 416.048C400.755 416.84 401.143 417.512 401.647 418.064C402.151 418.608 402.759 419.028 403.471 419.324C404.183 419.612 404.979 419.756 405.859 419.756C406.747 419.756 407.547 419.612 408.259 419.324C408.971 419.028 409.575 418.608 410.071 418.064C410.575 417.512 410.959 416.84 411.223 416.048C411.495 415.256 411.631 414.36 411.631 413.36ZM417.806 422V411.812L416.606 411.644C416.406 411.604 416.242 411.532 416.114 411.428C415.994 411.324 415.934 411.176 415.934 410.984V409.928H417.806V409.1C417.806 408.396 417.906 407.768 418.106 407.216C418.314 406.664 418.606 406.196 418.982 405.812C419.366 405.428 419.83 405.136 420.374 404.936C420.918 404.736 421.53 404.636 422.21 404.636C422.49 404.636 422.754 404.656 423.002 404.696C423.258 404.736 423.506 404.792 423.746 404.864L423.698 406.172C423.682 406.38 423.574 406.508 423.374 406.556C423.182 406.596 422.938 406.616 422.642 406.616C422.282 406.616 421.958 406.66 421.67 406.748C421.382 406.828 421.134 406.968 420.926 407.168C420.726 407.368 420.57 407.632 420.458 407.96C420.354 408.288 420.302 408.692 420.302 409.172V409.928H425.486V408.74C425.486 408.036 425.586 407.408 425.786 406.856C425.994 406.304 426.286 405.836 426.662 405.452C427.046 405.068 427.51 404.776 428.054 404.576C428.598 404.376 429.206 404.276 429.878 404.276C430.158 404.276 430.426 404.296 430.682 404.336C430.938 404.376 431.186 404.432 431.426 404.504L431.366 405.812C431.35 406.02 431.242 406.148 431.042 406.196C430.85 406.236 430.606 406.256 430.31 406.256C429.95 406.256 429.626 406.3 429.338 406.388C429.05 406.468 428.802 406.608 428.594 406.808C428.394 407.008 428.238 407.272 428.126 407.6C428.022 407.928 427.97 408.332 427.97 408.812V409.928H431.318V411.788H428.054V422H425.486V411.788H420.386V422H417.806ZM440.85 414.5C440.85 414.068 440.786 413.668 440.658 413.3C440.538 412.924 440.358 412.6 440.118 412.328C439.878 412.048 439.578 411.832 439.218 411.68C438.866 411.52 438.458 411.44 437.994 411.44C437.058 411.44 436.322 411.708 435.786 412.244C435.25 412.78 434.91 413.532 434.766 414.5H440.85ZM434.694 416.084C434.726 416.78 434.834 417.384 435.018 417.896C435.202 418.4 435.446 418.82 435.75 419.156C436.062 419.492 436.43 419.744 436.854 419.912C437.286 420.072 437.766 420.152 438.294 420.152C438.798 420.152 439.234 420.096 439.602 419.984C439.97 419.864 440.29 419.736 440.562 419.6C440.834 419.456 441.066 419.328 441.258 419.216C441.45 419.096 441.626 419.036 441.786 419.036C441.994 419.036 442.154 419.116 442.266 419.276L442.998 420.224C442.694 420.584 442.35 420.888 441.966 421.136C441.582 421.384 441.174 421.588 440.742 421.748C440.31 421.9 439.866 422.008 439.41 422.072C438.954 422.144 438.51 422.18 438.078 422.18C437.23 422.18 436.442 422.04 435.714 421.76C434.994 421.472 434.366 421.052 433.83 420.5C433.302 419.948 432.886 419.264 432.582 418.448C432.286 417.632 432.138 416.692 432.138 415.628C432.138 414.78 432.27 413.988 432.534 413.252C432.806 412.516 433.19 411.876 433.686 411.332C434.19 410.788 434.798 410.36 435.51 410.048C436.23 409.728 437.042 409.568 437.946 409.568C438.698 409.568 439.394 409.692 440.034 409.94C440.674 410.18 441.226 410.536 441.69 411.008C442.154 411.48 442.514 412.06 442.77 412.748C443.034 413.428 443.166 414.204 443.166 415.076C443.166 415.476 443.122 415.744 443.034 415.88C442.946 416.016 442.786 416.084 442.554 416.084H434.694ZM448.008 412.028C448.392 411.252 448.856 410.644 449.4 410.204C449.944 409.756 450.596 409.532 451.356 409.532C451.62 409.532 451.868 409.564 452.1 409.628C452.332 409.684 452.54 409.772 452.724 409.892L452.544 411.836C452.512 411.972 452.46 412.068 452.388 412.124C452.324 412.172 452.236 412.196 452.124 412.196C452.004 412.196 451.832 412.176 451.608 412.136C451.384 412.088 451.148 412.064 450.9 412.064C450.54 412.064 450.22 412.116 449.94 412.22C449.668 412.324 449.42 412.476 449.196 412.676C448.98 412.876 448.788 413.12 448.62 413.408C448.452 413.696 448.296 414.024 448.152 414.392V422H445.572V409.76H447.072C447.344 409.76 447.532 409.812 447.636 409.916C447.74 410.012 447.812 410.184 447.852 410.432L448.008 412.028Z" fill="#212121"/>
</svg>
