<svg width="200" height="200" viewBox="0 0 200 200" fill="none" xmlns="http://www.w3.org/2000/svg">
<path d="M104.297 200C157.152 200 200 157.152 200 104.297C200 51.4415 157.152 8.59375 104.297 8.59375C51.4415 8.59375 8.59375 51.4415 8.59375 104.297C8.59375 157.152 51.4415 200 104.297 200Z" fill="#F24976"/>
<path d="M94.398 94.3969C101.793 87.0032 111.623 82.9313 122.079 82.9313C129.202 82.9313 136.034 84.8227 142.004 88.3653V21.0012H0V144.794C0 146.943 1.75781 148.7 3.90625 148.7H93.3848C79.1461 133.37 79.4824 109.313 94.398 94.3969Z" fill="#EEF6FF"/>
<path d="M8.85938 144.794V21.0012H0V144.794C0 146.943 1.75781 148.7 3.90625 148.7H12.7656C10.6172 148.7 8.85938 146.943 8.85938 144.794Z" fill="#C3DDF4"/>
<path d="M139.771 0H2.23281C1.00469 0 0 1.00469 0 2.23281V22.1086H142.004V2.23281C142.004 1.00469 141 0 139.771 0Z" fill="#293D7C"/>
<path d="M11.0922 0H2.23281C1.00469 0 0 1.00469 0 2.23281V22.1086H8.85938V2.23281C8.85938 1.00469 9.86406 0 11.0922 0Z" fill="#1A2B63"/>
<path d="M61.82 69.7715C61.82 70.8457 60.9411 71.7246 59.8669 71.7246H16.3345C15.2603 71.7246 14.3813 70.8457 14.3813 69.7715V38.5531C14.3813 37.4789 15.2603 36.6 16.3345 36.6H59.8665C60.9407 36.6 61.8196 37.4789 61.8196 38.5531V69.7715H61.82Z" fill="#69CDFF"/>
<path d="M23.2407 69.7715V38.5531C23.2407 37.4789 24.1196 36.6 25.1938 36.6H16.3345C15.2603 36.6 14.3813 37.4789 14.3813 38.5531V69.7715C14.3813 70.8457 15.2603 71.7246 16.3345 71.7246H25.1938C24.1196 71.7246 23.2407 70.8457 23.2407 69.7715Z" fill="#52BBEF"/>
<path d="M84.8239 110.073H16.3345C15.2603 110.073 14.3813 110.952 14.3813 112.027V130.702C14.3813 131.776 15.2603 132.655 16.3345 132.655H84.3993C82.3388 125.269 82.479 117.392 84.8239 110.073Z" fill="#FF9518"/>
<path d="M23.2407 130.702V112.027C23.2407 110.952 24.1196 110.073 25.1938 110.073H16.3345C15.2603 110.073 14.3813 110.952 14.3813 112.027V130.702C14.3813 131.776 15.2603 132.655 16.3345 132.655H25.1938C24.1196 132.655 23.2407 131.776 23.2407 130.702Z" fill="#EF8318"/>
<path d="M84.8238 110.073H70.6445V132.655H84.3992C82.3387 125.269 82.4789 117.392 84.8238 110.073Z" fill="#FFD00D"/>
<path d="M125.295 39.5297H77.4082C75.7902 39.5297 74.4785 38.2179 74.4785 36.6C74.4785 34.982 75.7902 33.6703 77.4082 33.6703H125.295C126.913 33.6703 128.224 34.982 128.224 36.6C128.224 38.2179 126.913 39.5297 125.295 39.5297Z" fill="#91E0E8"/>
<path d="M125.295 51.2378H77.4082C75.7902 51.2378 74.4785 49.9261 74.4785 48.3081C74.4785 46.6901 75.7902 45.3784 77.4082 45.3784H125.295C126.913 45.3784 128.224 46.6901 128.224 48.3081C128.224 49.9261 126.913 51.2378 125.295 51.2378Z" fill="#91E0E8"/>
<path d="M125.295 62.9461H77.4082C75.7902 62.9461 74.4785 61.6344 74.4785 60.0164C74.4785 58.3984 75.7902 57.0867 77.4082 57.0867H125.295C126.913 57.0867 128.224 58.3984 128.224 60.0164C128.224 61.6344 126.913 62.9461 125.295 62.9461Z" fill="#91E0E8"/>
<path d="M125.295 74.6543H77.4082C75.7902 74.6543 74.4785 73.3426 74.4785 71.7246C74.4785 70.1066 75.7902 68.7949 77.4082 68.7949H125.295C126.913 68.7949 128.224 70.1066 128.224 71.7246C128.224 73.3426 126.913 74.6543 125.295 74.6543Z" fill="#91E0E8"/>
<path d="M116.976 83.2609H14.3813C12.763 83.2609 11.4517 84.5726 11.4517 86.1906C11.4517 87.8086 12.763 89.1203 14.3813 89.1203H100.934C105.772 86.0027 111.227 84.0047 116.976 83.2609Z" fill="#91E0E8"/>
<path d="M93.6372 95.1804H14.3813C12.763 95.1804 11.4517 96.4921 11.4517 98.1101C11.4517 99.7281 12.763 101.04 14.3813 101.04H89.0642C90.3774 98.9792 91.9009 97.0152 93.6372 95.1804Z" fill="#91E0E8"/>
<path d="M13.6309 13.5195C12.8578 13.5195 12.1035 13.207 11.5566 12.6637C11.0133 12.1168 10.7012 11.3629 10.7012 10.5898C10.7012 9.81992 11.0137 9.06641 11.5566 8.51953C12.1031 7.97266 12.8574 7.66016 13.6309 7.66016C14.4008 7.66016 15.1582 7.97227 15.7012 8.51953C16.248 9.06641 16.5605 9.82031 16.5605 10.5898C16.5605 11.3629 16.248 12.1172 15.7012 12.6637C15.1582 13.207 14.4004 13.5195 13.6309 13.5195Z" fill="#E26693"/>
<path d="M23.238 13.5195C22.4681 13.5195 21.7107 13.207 21.1673 12.6598C20.6208 12.1168 20.3083 11.3629 20.3083 10.5898C20.3083 9.81992 20.6208 9.06641 21.1673 8.51953C21.7142 7.97266 22.4681 7.66016 23.238 7.66016C24.0111 7.66016 24.765 7.97227 25.3123 8.51953C25.8552 9.06641 26.1677 9.82031 26.1677 10.5898C26.1677 11.3594 25.8548 12.1172 25.3123 12.6598C24.765 13.207 24.0115 13.5195 23.238 13.5195Z" fill="#FFAF10"/>
<path d="M32.8494 13.5195C32.0759 13.5195 31.322 13.207 30.7791 12.6637C30.2322 12.1168 29.9197 11.3629 29.9197 10.5898C29.9197 9.81992 30.2322 9.06641 30.7791 8.51953C31.322 7.97266 32.0759 7.66016 32.8494 7.66016C33.6189 7.66016 34.3767 7.97227 34.9197 8.51953C35.4666 9.06641 35.7791 9.82031 35.7791 10.5898C35.7791 11.3629 35.4666 12.1172 34.9197 12.6637C34.3728 13.207 33.6185 13.5195 32.8494 13.5195Z" fill="#37C47A"/>
<path d="M160.066 152.034L152.036 160.064L167.832 175.859C170.664 173.343 173.345 170.662 175.862 167.83L160.066 152.034Z" fill="#445EA0"/>
<path d="M163.253 147.192L156.599 140.538C154.829 143.853 152.55 146.966 149.758 149.757C146.998 152.517 143.898 154.814 140.553 156.609L147.195 163.25C147.954 164.01 149.197 164.01 149.957 163.25L163.253 149.954C164.013 149.195 164.013 147.952 163.253 147.192Z" fill="#293D7C"/>
<path d="M151.751 158.693L146.072 153.013C144.325 154.373 142.48 155.574 140.552 156.609L147.194 163.25C147.953 164.01 149.196 164.01 149.956 163.25L154.514 158.693C153.754 159.453 152.511 159.453 151.751 158.693Z" fill="#1A2B63"/>
<path d="M150.311 93.8441C165.903 109.436 165.903 134.717 150.311 150.309C134.719 165.9 109.439 165.901 93.8457 150.309C78.2535 134.717 78.2543 109.436 93.8457 93.8445C109.439 78.252 134.719 78.2516 150.311 93.8441Z" fill="#445EA0"/>
<path d="M141.874 141.872C130.942 152.804 113.217 152.804 102.283 141.871C91.3514 130.939 91.351 113.214 102.283 102.281C113.215 91.3492 130.942 91.3496 141.874 102.281C152.806 113.214 152.806 130.939 141.874 141.872Z" fill="#69CDFF"/>
<path d="M141.874 141.872C142.87 140.876 143.772 139.823 144.586 138.725C133.627 146.852 118.08 145.949 108.143 136.011C98.2061 126.075 97.3037 110.528 105.43 99.5692C104.332 100.384 103.279 101.286 102.283 102.281C91.351 113.214 91.3514 130.939 102.283 141.871C113.217 152.804 130.942 152.804 141.874 141.872Z" fill="#52BBEF"/>
<path d="M139.771 0H45.2781V22.1086H142.004V2.23281C142.004 1.00469 141 0 139.771 0Z" fill="#445EA0"/>
<path d="M126.887 108.02C129.476 108.02 131.574 105.921 131.574 103.332C131.574 100.743 129.476 98.6445 126.887 98.6445C124.298 98.6445 122.199 100.743 122.199 103.332C122.199 105.921 124.298 108.02 126.887 108.02Z" fill="#D9EAFC"/>
<path d="M136.734 111.523C138.568 111.523 140.055 110.037 140.055 108.203C140.055 106.369 138.568 104.883 136.734 104.883C134.901 104.883 133.414 106.369 133.414 108.203C133.414 110.037 134.901 111.523 136.734 111.523Z" fill="#D9EAFC"/>
</svg>
