<svg width="200" height="200" viewBox="0 0 200 200" fill="none" xmlns="http://www.w3.org/2000/svg">
<path d="M100 195.703C152.855 195.703 195.703 152.855 195.703 100C195.703 47.1446 152.855 4.29688 100 4.29688C47.1446 4.29688 4.29688 47.1446 4.29688 100C4.29688 152.855 47.1446 195.703 100 195.703Z" fill="#FFAF10"/>
<path d="M110.402 148.371H68.215V166.406H110.402V148.371Z" fill="#445EA0"/>
<path d="M75.9657 148.371H68.215V166.406H75.9657V148.371Z" fill="#2E4C89"/>
<path d="M130.13 175.781C130.13 176.855 129.252 177.734 128.177 177.734H50.4418C49.3676 177.734 48.4886 176.855 48.4886 175.781V167.969C48.4886 166.895 49.3676 166.016 50.4418 166.016H128.177C129.252 166.016 130.13 166.895 130.13 167.969V175.781Z" fill="#293D7C"/>
<path d="M56.2394 175.781V167.969C56.2394 166.895 57.1183 166.016 58.1926 166.016H50.4418C49.3676 166.016 48.4886 166.895 48.4886 167.969V175.781C48.4886 176.855 49.3676 177.734 50.4418 177.734H58.1926C57.1183 177.734 56.2394 176.855 56.2394 175.781Z" fill="#1A2B63"/>
<path d="M0 144.857C0 147.005 1.75781 148.763 3.90625 148.763H121.162V122.611H0V144.857Z" fill="#293D7C"/>
<path d="M7.75078 144.857V122.611H0V144.857C0 147.005 1.75781 148.763 3.90625 148.763H11.657C9.50859 148.763 7.75078 147.005 7.75078 144.857Z" fill="#1A2B63"/>
<path d="M121.162 112.104C121.162 111.243 121.863 110.542 122.725 110.542H178.619V25.9629C178.619 23.6012 176.687 21.6691 174.326 21.6691H4.29375C1.93203 21.6691 0 23.6012 0 25.9629V123.001H121.162V112.104Z" fill="#445EA0"/>
<path d="M121.162 112.104C121.162 111.243 121.863 110.542 122.725 110.542H170.032V32.2098C170.032 31.1356 169.153 30.2567 168.079 30.2567H10.5406C9.46643 30.2567 8.58752 31.1356 8.58752 32.2098V112.46C8.58752 113.534 9.46643 114.413 10.5406 114.413H121.162L121.162 112.104Z" fill="#EEF6FF"/>
<path d="M89.3086 141.454C92.3097 141.454 94.7426 139.021 94.7426 136.02C94.7426 133.018 92.3097 130.586 89.3086 130.586C86.3075 130.586 83.8746 133.018 83.8746 136.02C83.8746 139.021 86.3075 141.454 89.3086 141.454Z" fill="#445EA0"/>
<path d="M162.641 80.6156C162.641 81.6898 161.762 82.5687 160.688 82.5687H98.7906C97.7164 82.5687 96.8375 81.6898 96.8375 80.6156V52.2101C96.8375 51.1359 97.7164 50.257 98.7906 50.257H160.688C161.762 50.257 162.641 51.1359 162.641 52.2101V80.6156Z" fill="#FFAF10"/>
<path d="M104.589 80.6156V52.2101C104.589 51.1359 105.468 50.257 106.542 50.257H98.791C97.7168 50.257 96.8379 51.1359 96.8379 52.2101V80.6156C96.8379 81.6898 97.7168 82.5687 98.791 82.5687H106.542C105.468 82.5687 104.589 81.6898 104.589 80.6156Z" fill="#FF9518"/>
<path d="M116.901 93.7972H100.06C98.4422 93.7972 97.1305 92.4859 97.1305 90.8676C97.1305 89.2492 98.4422 87.9379 100.06 87.9379H116.901C118.519 87.9379 119.83 89.2492 119.83 90.8676C119.83 92.4859 118.519 93.7972 116.901 93.7972Z" fill="#C3DDF4"/>
<path d="M116.901 102.702H100.06C98.4422 102.702 97.1305 101.39 97.1305 99.7718C97.1305 98.1535 98.4422 96.8422 100.06 96.8422H116.901C118.519 96.8422 119.83 98.1535 119.83 99.7718C119.83 101.39 118.519 102.702 116.901 102.702Z" fill="#C3DDF4"/>
<path d="M137.219 93.7972H124.695C123.077 93.7972 121.766 92.4859 121.766 90.8676C121.766 89.2492 123.077 87.9379 124.695 87.9379H137.219C138.837 87.9379 140.148 89.2492 140.148 90.8676C140.148 92.4859 138.837 93.7972 137.219 93.7972Z" fill="#C3DDF4"/>
<path d="M137.219 102.702H124.695C123.077 102.702 121.766 101.39 121.766 99.7718C121.766 98.1535 123.077 96.8422 124.695 96.8422H137.219C138.837 96.8422 140.148 98.1535 140.148 99.7718C140.148 101.39 138.837 102.702 137.219 102.702Z" fill="#C3DDF4"/>
<path d="M160.848 93.7972H144.897C143.279 93.7972 141.967 92.4859 141.967 90.8676C141.967 89.2492 143.279 87.9379 144.897 87.9379H160.848C162.466 87.9379 163.778 89.2492 163.778 90.8676C163.778 92.4859 162.466 93.7972 160.848 93.7972Z" fill="#C3DDF4"/>
<path d="M160.848 102.702H144.897C143.279 102.702 141.967 101.39 141.967 99.7718C141.967 98.1535 143.279 96.8422 144.897 96.8422H160.848C162.466 96.8422 163.778 98.1535 163.778 99.7718C163.778 101.39 162.466 102.702 160.848 102.702Z" fill="#C3DDF4"/>
<path d="M140.377 43.3922C140.377 44.4664 139.498 45.3453 138.424 45.3453H134.127C133.053 45.3453 132.174 44.4664 132.174 43.3922V39.0957C132.174 38.0215 133.053 37.1426 134.127 37.1426H138.424C139.498 37.1426 140.377 38.0215 140.377 39.0957V43.3922Z" fill="#EF8318"/>
<path d="M151.314 43.3922C151.314 44.4664 150.435 45.3453 149.36 45.3453H145.064C143.99 45.3453 143.111 44.4664 143.111 43.3922V39.0957C143.111 38.0215 143.99 37.1426 145.064 37.1426H149.36C150.435 37.1426 151.314 38.0215 151.314 39.0957V43.3922Z" fill="#EF8318"/>
<path d="M162.25 43.3922C162.25 44.4664 161.371 45.3453 160.297 45.3453H156.001C154.927 45.3453 154.048 44.4664 154.048 43.3922V39.0957C154.048 38.0215 154.927 37.1426 156.001 37.1426H160.297C161.371 37.1426 162.25 38.0215 162.25 39.0957V43.3922Z" fill="#EF8318"/>
<path d="M74.5696 100.393H71.054C69.436 100.393 68.1243 99.0813 68.1243 97.4629C68.1243 95.8445 69.436 94.5332 71.054 94.5332H74.5696C76.1875 94.5332 77.4993 95.8445 77.4993 97.4629C77.4993 99.0813 76.1875 100.393 74.5696 100.393Z" fill="#69CDFF"/>
<path d="M61.2883 100.393H57.7727C56.1547 100.393 54.843 99.0813 54.843 97.4629C54.843 95.8445 56.1547 94.5332 57.7727 94.5332H61.2883C62.9063 94.5332 64.218 95.8445 64.218 97.4629C64.218 99.0813 62.9063 100.393 61.2883 100.393Z" fill="#69CDFF"/>
<path d="M48.0067 100.393H44.4911C42.8731 100.393 41.5614 99.0813 41.5614 97.4629C41.5614 95.8445 42.8731 94.5332 44.4911 94.5332H48.0067C49.6247 94.5332 50.9364 95.8445 50.9364 97.4629C50.9368 99.0813 49.6251 100.393 48.0067 100.393Z" fill="#69CDFF"/>
<path d="M34.7255 100.393H31.2098C29.5919 100.393 28.2802 99.0813 28.2802 97.4629C28.2802 95.8445 29.5919 94.5332 31.2098 94.5332H34.7255C36.3434 94.5332 37.6552 95.8445 37.6552 97.4629C37.6552 99.0813 36.3438 100.393 34.7255 100.393Z" fill="#69CDFF"/>
<path d="M85.9954 88.3226C84.3774 88.3226 83.0657 87.0113 83.0657 85.3929V81.8773C83.0657 80.2594 84.3774 78.9476 85.9954 78.9476C87.6133 78.9476 88.925 80.2594 88.925 81.8773V85.3929C88.925 87.0113 87.6133 88.3226 85.9954 88.3226Z" fill="#69CDFF"/>
<path d="M85.9954 75.0414C84.3774 75.0414 83.0657 73.7301 83.0657 72.1117V68.5961C83.0657 66.9781 84.3774 65.6664 85.9954 65.6664C87.6133 65.6664 88.925 66.9781 88.925 68.5961V72.1117C88.925 73.7301 87.6133 75.0414 85.9954 75.0414Z" fill="#69CDFF"/>
<path d="M85.9954 61.7601C84.3774 61.7601 83.0657 60.4488 83.0657 58.8304V55.3148C83.0657 53.6969 84.3774 52.3851 85.9954 52.3851C87.6133 52.3851 88.925 53.6969 88.925 55.3148V58.8304C88.925 60.4488 87.6133 61.7601 85.9954 61.7601Z" fill="#69CDFF"/>
<path d="M19.5887 88.3226C17.9708 88.3226 16.6591 87.0113 16.6591 85.3929V81.8773C16.6591 80.2594 17.9708 78.9476 19.5887 78.9476C21.2067 78.9476 22.5184 80.2594 22.5184 81.8773V85.3929C22.5184 87.0113 21.2071 88.3226 19.5887 88.3226Z" fill="#69CDFF"/>
<path d="M19.5887 75.0414C17.9708 75.0414 16.6591 73.7301 16.6591 72.1117V68.5961C16.6591 66.9781 17.9708 65.6664 19.5887 65.6664C21.2067 65.6664 22.5184 66.9781 22.5184 68.5961V72.1117C22.5184 73.7301 21.2071 75.0414 19.5887 75.0414Z" fill="#69CDFF"/>
<path d="M19.5887 61.7601C17.9708 61.7601 16.6591 60.4488 16.6591 58.8304V55.3148C16.6591 53.6969 17.9708 52.3851 19.5887 52.3851C21.2067 52.3851 22.5184 53.6969 22.5184 55.3148V58.8304C22.5184 60.4488 21.2071 61.7601 19.5887 61.7601Z" fill="#69CDFF"/>
<path d="M74.5696 47.2676H71.054C69.436 47.2676 68.1243 45.9563 68.1243 44.3379C68.1243 42.7195 69.436 41.4082 71.054 41.4082H74.5696C76.1875 41.4082 77.4993 42.7195 77.4993 44.3379C77.4993 45.9563 76.1875 47.2676 74.5696 47.2676Z" fill="#69CDFF"/>
<path d="M61.2883 47.2676H57.7727C56.1547 47.2676 54.843 45.9563 54.843 44.3379C54.843 42.7195 56.1547 41.4082 57.7727 41.4082H61.2883C62.9063 41.4082 64.218 42.7195 64.218 44.3379C64.218 45.9563 62.9063 47.2676 61.2883 47.2676Z" fill="#69CDFF"/>
<path d="M48.0067 47.2676H44.4911C42.8731 47.2676 41.5614 45.9563 41.5614 44.3379C41.5614 42.7195 42.8731 41.4082 44.4911 41.4082H48.0067C49.6247 41.4082 50.9364 42.7195 50.9364 44.3379C50.9364 45.9563 49.6251 47.2676 48.0067 47.2676Z" fill="#69CDFF"/>
<path d="M34.7255 47.2676H31.2098C29.5919 47.2676 28.2802 45.9563 28.2802 44.3379C28.2802 42.7195 29.5919 41.4082 31.2098 41.4082H34.7255C36.3434 41.4082 37.6552 42.7195 37.6552 44.3379C37.6552 45.9563 36.3438 47.2676 34.7255 47.2676Z" fill="#69CDFF"/>
<path d="M78.1829 87.6973C78.1829 88.7715 77.304 89.6504 76.2297 89.6504H29.3547C28.2805 89.6504 27.4016 88.7715 27.4016 87.6973V54.1035C27.4016 53.0293 28.2805 52.1504 29.3547 52.1504H76.2297C77.304 52.1504 78.1829 53.0293 78.1829 54.1035V87.6973Z" fill="#5DC1D8"/>
<path d="M35.1524 87.6973V54.1035C35.1524 53.0293 36.0313 52.1504 37.1055 52.1504H29.3544C28.2802 52.1504 27.4012 53.0293 27.4012 54.1035V87.6973C27.4012 88.7715 28.2802 89.6504 29.3544 89.6504H37.1055C36.0313 89.6504 35.1524 88.7715 35.1524 87.6973Z" fill="#28A5A5"/>
<path d="M91.4629 47.2692C91.4629 48.3434 90.584 49.2223 89.5098 49.2223H81.3066C80.2324 49.2223 79.3535 48.3434 79.3535 47.2692V39.066C79.3535 37.9918 80.2324 37.1129 81.3066 37.1129H89.5098C90.584 37.1129 91.4629 37.9918 91.4629 39.066V47.2692Z" fill="#52BBEF"/>
<path d="M26.6191 48.0504C26.6191 49.1246 25.7402 50.0035 24.666 50.0035H16.4629C15.3887 50.0035 14.5098 49.1246 14.5098 48.0504V39.8473C14.5098 38.7731 15.3887 37.8942 16.4629 37.8942H24.666C25.7402 37.8942 26.6191 38.7731 26.6191 39.8473V48.0504Z" fill="#52BBEF"/>
<path d="M91.4629 101.907C91.4629 102.982 90.584 103.861 89.5098 103.861H81.3066C80.2324 103.861 79.3535 102.982 79.3535 101.907V93.7043C79.3535 92.6301 80.2324 91.7512 81.3066 91.7512H89.5098C90.584 91.7512 91.4629 92.6301 91.4629 93.7043V101.907Z" fill="#52BBEF"/>
<path d="M26.6191 101.907C26.6191 102.982 25.7402 103.861 24.666 103.861H16.4629C15.3887 103.861 14.5098 102.982 14.5098 101.907V93.7043C14.5098 92.6301 15.3887 91.7512 16.4629 91.7512H24.666C25.7402 91.7512 26.6191 92.6301 26.6191 93.7043V101.907Z" fill="#52BBEF"/>
<path d="M83.659 47.2692V39.066C83.659 37.9918 84.5379 37.1129 85.6121 37.1129H81.3066C80.2324 37.1129 79.3535 37.9918 79.3535 39.066V47.2692C79.3535 48.3434 80.2324 49.2223 81.3066 49.2223H85.6121C84.5379 49.2223 83.659 48.3434 83.659 47.2692Z" fill="#1E99D6"/>
<path d="M18.8152 48.0504V39.8473C18.8152 38.7731 19.6941 37.8942 20.7684 37.8942H16.4629C15.3887 37.8942 14.5098 38.7731 14.5098 39.8473V48.0504C14.5098 49.1246 15.3887 50.0035 16.4629 50.0035H20.7684C19.6941 50.0035 18.8152 49.1246 18.8152 48.0504Z" fill="#1E99D6"/>
<path d="M83.659 101.907V93.7043C83.659 92.6301 84.5379 91.7512 85.6121 91.7512H81.3066C80.2324 91.7512 79.3535 92.6301 79.3535 93.7043V101.907C79.3535 102.982 80.2324 103.861 81.3066 103.861H85.6121C84.5379 103.861 83.659 102.982 83.659 101.907Z" fill="#1E99D6"/>
<path d="M18.8152 101.907V93.7043C18.8152 92.6301 19.6941 91.7512 20.7684 91.7512H16.4629C15.3887 91.7512 14.5098 92.6301 14.5098 93.7043V101.907C14.5098 102.982 15.3887 103.861 16.4629 103.861H20.7684C19.6941 103.861 18.8152 102.982 18.8152 101.907Z" fill="#1E99D6"/>
<path d="M170.101 143.271C170.04 143.106 170.045 143.012 170.053 142.982C170.054 142.982 170.078 142.979 170.1 142.979C170.144 142.979 170.222 142.988 170.34 143.032L186.787 149.073V112.105C186.787 111.03 185.908 110.152 184.833 110.152H122.724C121.65 110.152 120.771 111.03 120.771 112.105V156.948C120.771 158.023 121.65 158.902 122.724 158.902H175.841L170.101 143.271Z" fill="#5DC1D8"/>
<path d="M128.522 156.948V112.104C128.522 111.03 129.401 110.151 130.475 110.151H122.725C121.65 110.151 120.771 111.03 120.771 112.104V156.948C120.771 158.022 121.65 158.901 122.725 158.901H130.475C129.401 158.901 128.522 158.022 128.522 156.948Z" fill="#28A5A5"/>
<path d="M170.475 142.665C169.831 142.429 169.498 142.762 169.734 143.405L180.033 171.445C180.269 172.089 180.859 172.219 181.344 171.734L186.812 166.266C187.296 165.782 188.09 165.782 188.575 166.266L194.875 172.567C195.36 173.052 196.153 173.052 196.639 172.567L199.636 169.57C200.121 169.085 200.121 168.291 199.636 167.806L193.336 161.506C192.851 161.021 192.851 160.228 193.336 159.743L198.803 154.275C199.288 153.791 199.158 153.2 198.514 152.964L170.475 142.665Z" fill="#293D7C"/>
</svg>
